<?xml version="1.0" encoding="UTF-8" standalone="no"?><!-- Generator: Gravit.io --><svg xmlns="http://www.w3.org/2000/svg" xmlns:xlink="http://www.w3.org/1999/xlink" style="isolation:isolate" viewBox="23.925 600.646 80 80" width="80pt" height="80pt"><path d=" M 86.782 637.789 L 86.782 643.504 C 86.782 644.682 85.818 645.646 84.639 645.646 L 68.925 645.646 L 68.925 661.361 C 68.925 662.539 67.961 663.504 66.782 663.504 L 61.068 663.504 C 59.889 663.504 58.925 662.539 58.925 661.361 L 58.925 645.646 L 43.211 645.646 C 42.032 645.646 41.068 644.682 41.068 643.504 L 41.068 637.789 C 41.068 636.611 42.032 635.646 43.211 635.646 L 58.925 635.646 L 58.925 619.932 C 58.925 618.754 59.889 617.789 61.068 617.789 L 66.782 617.789 C 67.961 617.789 68.925 618.754 68.925 619.932 L 68.925 635.646 L 84.639 635.646 C 85.818 635.646 86.782 636.611 86.782 637.789 Z  M 103.925 609.218 L 103.925 672.075 C 103.925 676.807 100.086 680.646 95.354 680.646 L 32.497 680.646 C 27.764 680.646 23.925 676.807 23.925 672.075 L 23.925 609.218 C 23.925 604.486 27.764 600.646 32.497 600.646 L 95.354 600.646 C 100.086 600.646 103.925 604.486 103.925 609.218 Z  M 95.354 671.004 L 95.354 610.289 C 95.354 609.7 94.872 609.218 94.282 609.218 L 33.568 609.218 C 32.979 609.218 32.497 609.7 32.497 610.289 L 32.497 671.004 C 32.497 671.593 32.979 672.075 33.568 672.075 L 94.282 672.075 C 94.872 672.075 95.354 671.593 95.354 671.004 Z " fill="rgb(255,0,255)"/></svg>