<?xml version="1.0" encoding="UTF-8" standalone="no"?><!-- Generator: Gravit.io --><svg xmlns="http://www.w3.org/2000/svg" xmlns:xlink="http://www.w3.org/1999/xlink" style="isolation:isolate" viewBox="90.075 298 194.85 216" width="194.85pt" height="216pt"><g><defs><radialGradient id="_rgradient_6" fx="50%" fy="50%" cx="50%" cy="50%" r="50%"><stop offset="1.3043478260869565%" style="stop-color:#000000"/><stop offset="97.82608695652173%" style="stop-color:#0F0E0E"/></radialGradient></defs><path d="M 135.342 298 L 284.925 298 L 284.925 469 C 284.925 493.836 264.761 514 239.925 514 L 90.075 514 L 90.075 343.267 C 90.075 318.284 110.359 298 135.342 298 Z" style="stroke:none;fill:url(#_rgradient_6);stroke-miterlimit:10;"/><g><mask id="_mask_N4XDqi3RUyH3sMvmFv7rUK9nvrdMQm3n" x="-200%" y="-200%" width="400%" height="400%"><rect x="-200%" y="-200%" width="400%" height="400%" style="fill:white;"/><path d=" M 252.5 343.882 L 192.5 343.882 L 172.5 323.882 L 122.5 323.882 C 114.216 323.882 107.5 330.597 107.5 338.882 L 107.5 428.882 C 107.5 437.166 114.216 443.882 122.5 443.882 L 252.5 443.882 C 260.784 443.882 267.5 437.166 267.5 428.882 L 267.5 358.882 C 267.5 350.597 260.784 343.882 252.5 343.882 Z " fill="black" stroke="none"/></mask><linearGradient id="_lgradient_8" x1="0" y1="0.5" x2="1" y2="0.5"><stop offset="0%" stop-opacity="1" style="stop-color:rgb(0,255,255)"/><stop offset="98.26086956521739%" stop-opacity="1" style="stop-color:rgb(255,0,255)"/></linearGradient><path d=" M 252.5 343.882 L 192.5 343.882 L 172.5 323.882 L 122.5 323.882 C 114.216 323.882 107.5 330.597 107.5 338.882 L 107.5 428.882 C 107.5 437.166 114.216 443.882 122.5 443.882 L 252.5 443.882 C 260.784 443.882 267.5 437.166 267.5 428.882 L 267.5 358.882 C 267.5 350.597 260.784 343.882 252.5 343.882 Z " fill="rgb(0,0,0)" mask="url(#_mask_N4XDqi3RUyH3sMvmFv7rUK9nvrdMQm3n)" vector-effect="non-scaling-stroke" stroke-width="4" stroke="url(#_lgradient_8)" stroke-linejoin="miter" stroke-linecap="butt" stroke-miterlimit="4"/><path d=" M 252.5 343.882 L 192.5 343.882 L 172.5 323.882 L 122.5 323.882 C 114.216 323.882 107.5 330.597 107.5 338.882 L 107.5 428.882 C 107.5 437.166 114.216 443.882 122.5 443.882 L 252.5 443.882 C 260.784 443.882 267.5 437.166 267.5 428.882 L 267.5 358.882 C 267.5 350.597 260.784 343.882 252.5 343.882 Z " fill="rgb(0,0,0)"/><mask id="_mask_57GcWEdAU43FoQa6yOaLxO6bUIWRH2dq" x="-200%" y="-200%" width="400%" height="400%"><rect x="-200%" y="-200%" width="400%" height="400%" style="fill:white;"/><path d=" M 252.5 343.882 L 192.5 343.882 L 172.5 323.882 L 122.5 323.882 C 114.216 323.882 107.5 330.597 107.5 338.882 L 107.5 428.882 C 107.5 437.166 114.216 443.882 122.5 443.882 L 252.5 443.882 C 260.784 443.882 267.5 437.166 267.5 428.882 L 267.5 358.882 C 267.5 350.597 260.784 343.882 252.5 343.882 Z " fill="black" stroke="none"/></mask><linearGradient id="_lgradient_9" x1="0" y1="0.5" x2="1" y2="0.5"><stop offset="0%" stop-opacity="1" style="stop-color:rgb(0,255,255)"/><stop offset="98.26086956521739%" stop-opacity="1" style="stop-color:rgb(255,0,255)"/></linearGradient><path d=" M 252.5 343.882 L 192.5 343.882 L 172.5 323.882 L 122.5 323.882 C 114.216 323.882 107.5 330.597 107.5 338.882 L 107.5 428.882 C 107.5 437.166 114.216 443.882 122.5 443.882 L 252.5 443.882 C 260.784 443.882 267.5 437.166 267.5 428.882 L 267.5 358.882 C 267.5 350.597 260.784 343.882 252.5 343.882 Z " fill="rgb(0,0,0)" mask="url(#_mask_57GcWEdAU43FoQa6yOaLxO6bUIWRH2dq)" vector-effect="non-scaling-stroke" stroke-width="4" stroke="url(#_lgradient_9)" stroke-linejoin="miter" stroke-linecap="butt" stroke-miterlimit="4"/><path d=" M 252.5 343.882 L 192.5 343.882 L 172.5 323.882 L 122.5 323.882 C 114.216 323.882 107.5 330.597 107.5 338.882 L 107.5 428.882 C 107.5 437.166 114.216 443.882 122.5 443.882 L 252.5 443.882 C 260.784 443.882 267.5 437.166 267.5 428.882 L 267.5 358.882 C 267.5 350.597 260.784 343.882 252.5 343.882 Z " fill="rgb(0,0,0)"/><path d=" M 204.971 476.155 L 204.971 482.259 L 203.311 482.259 L 203.311 467.981 L 211.27 467.981 L 211.27 469.456 L 204.971 469.456 L 204.971 474.681 L 210.889 474.681 L 210.889 476.155 L 204.971 476.155 L 204.971 476.155 Z  M 222.627 476.897 L 222.627 476.897 L 222.627 476.897 Q 222.627 479.515 221.309 480.984 L 221.309 480.984 L 221.309 480.984 Q 219.99 482.454 217.666 482.454 L 217.666 482.454 L 217.666 482.454 Q 216.23 482.454 215.117 481.78 L 215.117 481.78 L 215.117 481.78 Q 214.004 481.106 213.398 479.847 L 213.398 479.847 L 213.398 479.847 Q 212.793 478.587 212.793 476.897 L 212.793 476.897 L 212.793 476.897 Q 212.793 474.28 214.102 472.82 L 214.102 472.82 L 214.102 472.82 Q 215.41 471.36 217.734 471.36 L 217.734 471.36 L 217.734 471.36 Q 219.98 471.36 221.304 472.854 L 221.304 472.854 L 221.304 472.854 Q 222.627 474.349 222.627 476.897 Z  M 214.473 476.897 L 214.473 476.897 L 214.473 476.897 Q 214.473 478.948 215.293 480.022 L 215.293 480.022 L 215.293 480.022 Q 216.113 481.097 217.705 481.097 L 217.705 481.097 L 217.705 481.097 Q 219.297 481.097 220.122 480.027 L 220.122 480.027 L 220.122 480.027 Q 220.947 478.958 220.947 476.897 L 220.947 476.897 L 220.947 476.897 Q 220.947 474.856 220.122 473.797 L 220.122 473.797 L 220.122 473.797 Q 219.297 472.737 217.686 472.737 L 217.686 472.737 L 217.686 472.737 Q 216.094 472.737 215.283 473.782 L 215.283 473.782 L 215.283 473.782 Q 214.473 474.827 214.473 476.897 Z  M 227.09 467.063 L 227.09 482.259 L 225.469 482.259 L 225.469 467.063 L 227.09 467.063 L 227.09 467.063 Z  M 238.027 482.259 L 237.813 480.823 L 237.725 480.823 L 237.725 480.823 Q 236.602 482.454 234.365 482.454 L 234.365 482.454 L 234.365 482.454 Q 232.266 482.454 231.099 481.019 L 231.099 481.019 L 231.099 481.019 Q 229.932 479.583 229.932 476.937 L 229.932 476.937 L 229.932 476.937 Q 229.932 474.29 231.104 472.825 L 231.104 472.825 L 231.104 472.825 Q 232.275 471.36 234.365 471.36 L 234.365 471.36 L 234.365 471.36 Q 236.543 471.36 237.705 472.942 L 237.705 472.942 L 237.832 472.942 L 237.764 472.171 L 237.725 471.419 L 237.725 467.063 L 239.346 467.063 L 239.346 482.259 L 238.027 482.259 L 238.027 482.259 Z  M 234.57 481.097 L 234.57 481.097 L 234.57 481.097 Q 236.23 481.097 236.978 480.193 L 236.978 480.193 L 236.978 480.193 Q 237.725 479.29 237.725 477.278 L 237.725 477.278 L 237.725 476.937 L 237.725 476.937 Q 237.725 474.661 236.968 473.689 L 236.968 473.689 L 236.968 473.689 Q 236.211 472.718 234.551 472.718 L 234.551 472.718 L 234.551 472.718 Q 233.125 472.718 232.368 473.826 L 232.368 473.826 L 232.368 473.826 Q 231.611 474.935 231.611 476.956 L 231.611 476.956 L 231.611 476.956 Q 231.611 479.007 232.363 480.052 L 232.363 480.052 L 232.363 480.052 Q 233.115 481.097 234.57 481.097 Z  M 247.305 482.454 L 247.305 482.454 L 247.305 482.454 Q 244.932 482.454 243.56 481.009 L 243.56 481.009 L 243.56 481.009 Q 242.188 479.563 242.188 476.995 L 242.188 476.995 L 242.188 476.995 Q 242.188 474.407 243.462 472.884 L 243.462 472.884 L 243.462 472.884 Q 244.736 471.36 246.885 471.36 L 246.885 471.36 L 246.885 471.36 Q 248.896 471.36 250.068 472.684 L 250.068 472.684 L 250.068 472.684 Q 251.24 474.007 251.24 476.175 L 251.24 476.175 L 251.24 477.2 L 243.867 477.2 L 243.867 477.2 Q 243.916 479.085 244.819 480.062 L 244.819 480.062 L 244.819 480.062 Q 245.723 481.038 247.363 481.038 L 247.363 481.038 L 247.363 481.038 Q 249.092 481.038 250.781 480.315 L 250.781 480.315 L 250.781 481.761 L 250.781 481.761 Q 249.922 482.132 249.155 482.293 L 249.155 482.293 L 249.155 482.293 Q 248.389 482.454 247.305 482.454 Z  M 246.865 472.718 L 246.865 472.718 L 246.865 472.718 Q 245.576 472.718 244.81 473.558 L 244.81 473.558 L 244.81 473.558 Q 244.043 474.397 243.906 475.882 L 243.906 475.882 L 249.502 475.882 L 249.502 475.882 Q 249.502 474.349 248.818 473.533 L 248.818 473.533 L 248.818 473.533 Q 248.135 472.718 246.865 472.718 Z  M 258.887 471.36 L 258.887 471.36 L 258.887 471.36 Q 259.6 471.36 260.166 471.478 L 260.166 471.478 L 259.941 472.981 L 259.941 472.981 Q 259.277 472.835 258.77 472.835 L 258.77 472.835 L 258.77 472.835 Q 257.471 472.835 256.548 473.89 L 256.548 473.89 L 256.548 473.89 Q 255.625 474.944 255.625 476.517 L 255.625 476.517 L 255.625 482.259 L 254.004 482.259 L 254.004 471.556 L 255.342 471.556 L 255.527 473.538 L 255.605 473.538 L 255.605 473.538 Q 256.201 472.493 257.041 471.927 L 257.041 471.927 L 257.041 471.927 Q 257.881 471.36 258.887 471.36 Z  M 159.883 478.46 L 159.883 478.46 L 159.883 478.46 Q 159.883 480.345 158.516 481.399 L 158.516 481.399 L 158.516 481.399 Q 157.148 482.454 154.805 482.454 L 154.805 482.454 L 154.805 482.454 Q 152.266 482.454 150.898 481.8 L 150.898 481.8 L 150.898 480.198 L 150.898 480.198 Q 151.777 480.569 152.813 480.784 L 152.813 480.784 L 152.813 480.784 Q 153.848 480.999 154.863 480.999 L 154.863 480.999 L 154.863 480.999 Q 156.523 480.999 157.363 480.369 L 157.363 480.369 L 157.363 480.369 Q 158.203 479.739 158.203 478.616 L 158.203 478.616 L 158.203 478.616 Q 158.203 477.874 157.905 477.4 L 157.905 477.4 L 157.905 477.4 Q 157.607 476.927 156.909 476.526 L 156.909 476.526 L 156.909 476.526 Q 156.211 476.126 154.785 475.618 L 154.785 475.618 L 154.785 475.618 Q 152.793 474.905 151.938 473.929 L 151.938 473.929 L 151.938 473.929 Q 151.084 472.952 151.084 471.38 L 151.084 471.38 L 151.084 471.38 Q 151.084 469.729 152.324 468.753 L 152.324 468.753 L 152.324 468.753 Q 153.564 467.776 155.605 467.776 L 155.605 467.776 L 155.605 467.776 Q 157.734 467.776 159.521 468.558 L 159.521 468.558 L 159.004 470.003 L 159.004 470.003 Q 157.236 469.261 155.566 469.261 L 155.566 469.261 L 155.566 469.261 Q 154.248 469.261 153.506 469.827 L 153.506 469.827 L 153.506 469.827 Q 152.764 470.394 152.764 471.399 L 152.764 471.399 L 152.764 471.399 Q 152.764 472.142 153.037 472.615 L 153.037 472.615 L 153.037 472.615 Q 153.311 473.089 153.96 473.484 L 153.96 473.484 L 153.96 473.484 Q 154.609 473.88 155.947 474.358 L 155.947 474.358 L 155.947 474.358 Q 158.193 475.159 159.038 476.077 L 159.038 476.077 L 159.038 476.077 Q 159.883 476.995 159.883 478.46 Z  M 171.797 476.897 L 171.797 476.897 L 171.797 476.897 Q 171.797 479.515 170.479 480.984 L 170.479 480.984 L 170.479 480.984 Q 169.16 482.454 166.836 482.454 L 166.836 482.454 L 166.836 482.454 Q 165.4 482.454 164.287 481.78 L 164.287 481.78 L 164.287 481.78 Q 163.174 481.106 162.568 479.847 L 162.568 479.847 L 162.568 479.847 Q 161.963 478.587 161.963 476.897 L 161.963 476.897 L 161.963 476.897 Q 161.963 474.28 163.271 472.82 L 163.271 472.82 L 163.271 472.82 Q 164.58 471.36 166.904 471.36 L 166.904 471.36 L 166.904 471.36 Q 169.15 471.36 170.474 472.854 L 170.474 472.854 L 170.474 472.854 Q 171.797 474.349 171.797 476.897 Z  M 163.643 476.897 L 163.643 476.897 L 163.643 476.897 Q 163.643 478.948 164.463 480.022 L 164.463 480.022 L 164.463 480.022 Q 165.283 481.097 166.875 481.097 L 166.875 481.097 L 166.875 481.097 Q 168.467 481.097 169.292 480.027 L 169.292 480.027 L 169.292 480.027 Q 170.117 478.958 170.117 476.897 L 170.117 476.897 L 170.117 476.897 Q 170.117 474.856 169.292 473.797 L 169.292 473.797 L 169.292 473.797 Q 168.467 472.737 166.855 472.737 L 166.855 472.737 L 166.855 472.737 Q 165.264 472.737 164.453 473.782 L 164.453 473.782 L 164.453 473.782 Q 163.643 474.827 163.643 476.897 Z  M 183.584 482.259 L 181.963 482.259 L 181.963 475.335 L 181.963 475.335 Q 181.963 474.026 181.367 473.382 L 181.367 473.382 L 181.367 473.382 Q 180.771 472.737 179.502 472.737 L 179.502 472.737 L 179.502 472.737 Q 177.822 472.737 177.041 473.646 L 177.041 473.646 L 177.041 473.646 Q 176.26 474.554 176.26 476.644 L 176.26 476.644 L 176.26 482.259 L 174.639 482.259 L 174.639 471.556 L 175.957 471.556 L 176.221 473.021 L 176.299 473.021 L 176.299 473.021 Q 176.797 472.229 177.695 471.795 L 177.695 471.795 L 177.695 471.795 Q 178.594 471.36 179.697 471.36 L 179.697 471.36 L 179.697 471.36 Q 181.631 471.36 182.607 472.293 L 182.607 472.293 L 182.607 472.293 Q 183.584 473.226 183.584 475.276 L 183.584 475.276 L 183.584 482.259 L 183.584 482.259 Z  M 191.973 471.556 L 195.674 471.556 L 195.674 472.581 L 193.691 472.815 L 193.691 472.815 Q 193.965 473.157 194.18 473.709 L 194.18 473.709 L 194.18 473.709 Q 194.395 474.261 194.395 474.954 L 194.395 474.954 L 194.395 474.954 Q 194.395 476.526 193.32 477.464 L 193.32 477.464 L 193.32 477.464 Q 192.246 478.401 190.371 478.401 L 190.371 478.401 L 190.371 478.401 Q 189.893 478.401 189.473 478.323 L 189.473 478.323 L 189.473 478.323 Q 188.438 478.87 188.438 479.7 L 188.438 479.7 L 188.438 479.7 Q 188.438 480.14 188.799 480.35 L 188.799 480.35 L 188.799 480.35 Q 189.16 480.56 190.039 480.56 L 190.039 480.56 L 191.934 480.56 L 191.934 480.56 Q 193.672 480.56 194.604 481.292 L 194.604 481.292 L 194.604 481.292 Q 195.537 482.024 195.537 483.421 L 195.537 483.421 L 195.537 483.421 Q 195.537 485.198 194.111 486.131 L 194.111 486.131 L 194.111 486.131 Q 192.686 487.063 189.951 487.063 L 189.951 487.063 L 189.951 487.063 Q 187.852 487.063 186.714 486.282 L 186.714 486.282 L 186.714 486.282 Q 185.576 485.501 185.576 484.075 L 185.576 484.075 L 185.576 484.075 Q 185.576 483.099 186.201 482.386 L 186.201 482.386 L 186.201 482.386 Q 186.826 481.673 187.959 481.419 L 187.959 481.419 L 187.959 481.419 Q 187.549 481.233 187.271 480.843 L 187.271 480.843 L 187.271 480.843 Q 186.992 480.452 186.992 479.935 L 186.992 479.935 L 186.992 479.935 Q 186.992 479.349 187.305 478.909 L 187.305 478.909 L 187.305 478.909 Q 187.617 478.47 188.291 478.06 L 188.291 478.06 L 188.291 478.06 Q 187.461 477.718 186.938 476.897 L 186.938 476.897 L 186.938 476.897 Q 186.416 476.077 186.416 475.022 L 186.416 475.022 L 186.416 475.022 Q 186.416 473.265 187.471 472.313 L 187.471 472.313 L 187.471 472.313 Q 188.525 471.36 190.459 471.36 L 190.459 471.36 L 190.459 471.36 Q 191.299 471.36 191.973 471.556 L 191.973 471.556 L 191.973 471.556 Z  M 187.139 484.056 L 187.139 484.056 L 187.139 484.056 Q 187.139 484.925 187.871 485.374 L 187.871 485.374 L 187.871 485.374 Q 188.604 485.823 189.971 485.823 L 189.971 485.823 L 189.971 485.823 Q 192.012 485.823 192.993 485.213 L 192.993 485.213 L 192.993 485.213 Q 193.975 484.603 193.975 483.558 L 193.975 483.558 L 193.975 483.558 Q 193.975 482.688 193.438 482.352 L 193.438 482.352 L 193.438 482.352 Q 192.9 482.015 191.416 482.015 L 191.416 482.015 L 189.473 482.015 L 189.473 482.015 Q 188.369 482.015 187.754 482.542 L 187.754 482.542 L 187.754 482.542 Q 187.139 483.069 187.139 484.056 Z  M 188.018 474.983 L 188.018 474.983 L 188.018 474.983 Q 188.018 476.106 188.652 476.683 L 188.652 476.683 L 188.652 476.683 Q 189.287 477.259 190.42 477.259 L 190.42 477.259 L 190.42 477.259 Q 192.793 477.259 192.793 474.954 L 192.793 474.954 L 192.793 474.954 Q 192.793 472.542 190.391 472.542 L 190.391 472.542 L 190.391 472.542 Q 189.248 472.542 188.633 473.157 L 188.633 473.157 L 188.633 473.157 Q 188.018 473.772 188.018 474.983 Z  M 120.156 482.259 L 118.438 482.259 L 116.66 477.718 L 110.938 477.718 L 109.18 482.259 L 107.5 482.259 L 113.145 467.923 L 114.541 467.923 L 120.156 482.259 L 120.156 482.259 Z  M 111.523 476.224 L 116.143 476.224 L 114.482 471.8 L 114.482 471.8 Q 114.16 470.96 113.818 469.739 L 113.818 469.739 L 113.818 469.739 Q 113.604 470.677 113.203 471.8 L 113.203 471.8 L 111.523 476.224 L 111.523 476.224 Z  M 129.375 482.259 L 129.16 480.823 L 129.072 480.823 L 129.072 480.823 Q 127.949 482.454 125.713 482.454 L 125.713 482.454 L 125.713 482.454 Q 123.613 482.454 122.446 481.019 L 122.446 481.019 L 122.446 481.019 Q 121.279 479.583 121.279 476.937 L 121.279 476.937 L 121.279 476.937 Q 121.279 474.29 122.451 472.825 L 122.451 472.825 L 122.451 472.825 Q 123.623 471.36 125.713 471.36 L 125.713 471.36 L 125.713 471.36 Q 127.891 471.36 129.053 472.942 L 129.053 472.942 L 129.18 472.942 L 129.111 472.171 L 129.072 471.419 L 129.072 467.063 L 130.693 467.063 L 130.693 482.259 L 129.375 482.259 L 129.375 482.259 Z  M 125.918 481.097 L 125.918 481.097 L 125.918 481.097 Q 127.578 481.097 128.325 480.193 L 128.325 480.193 L 128.325 480.193 Q 129.072 479.29 129.072 477.278 L 129.072 477.278 L 129.072 476.937 L 129.072 476.937 Q 129.072 474.661 128.315 473.689 L 128.315 473.689 L 128.315 473.689 Q 127.559 472.718 125.898 472.718 L 125.898 472.718 L 125.898 472.718 Q 124.473 472.718 123.716 473.826 L 123.716 473.826 L 123.716 473.826 Q 122.959 474.935 122.959 476.956 L 122.959 476.956 L 122.959 476.956 Q 122.959 479.007 123.711 480.052 L 123.711 480.052 L 123.711 480.052 Q 124.463 481.097 125.918 481.097 Z  M 141.631 482.259 L 141.416 480.823 L 141.328 480.823 L 141.328 480.823 Q 140.205 482.454 137.969 482.454 L 137.969 482.454 L 137.969 482.454 Q 135.869 482.454 134.702 481.019 L 134.702 481.019 L 134.702 481.019 Q 133.535 479.583 133.535 476.937 L 133.535 476.937 L 133.535 476.937 Q 133.535 474.29 134.707 472.825 L 134.707 472.825 L 134.707 472.825 Q 135.879 471.36 137.969 471.36 L 137.969 471.36 L 137.969 471.36 Q 140.146 471.36 141.309 472.942 L 141.309 472.942 L 141.436 472.942 L 141.367 472.171 L 141.328 471.419 L 141.328 467.063 L 142.949 467.063 L 142.949 482.259 L 141.631 482.259 L 141.631 482.259 Z  M 138.174 481.097 L 138.174 481.097 L 138.174 481.097 Q 139.834 481.097 140.581 480.193 L 140.581 480.193 L 140.581 480.193 Q 141.328 479.29 141.328 477.278 L 141.328 477.278 L 141.328 476.937 L 141.328 476.937 Q 141.328 474.661 140.571 473.689 L 140.571 473.689 L 140.571 473.689 Q 139.814 472.718 138.154 472.718 L 138.154 472.718 L 138.154 472.718 Q 136.729 472.718 135.972 473.826 L 135.972 473.826 L 135.972 473.826 Q 135.215 474.935 135.215 476.956 L 135.215 476.956 L 135.215 476.956 Q 135.215 479.007 135.967 480.052 L 135.967 480.052 L 135.967 480.052 Q 136.719 481.097 138.174 481.097 Z " fill="rgb(255,255,255)"/></g></g></svg>