<?xml version="1.0" encoding="UTF-8" standalone="no"?><!-- Generator: Gravit.io --><svg xmlns="http://www.w3.org/2000/svg" xmlns:xlink="http://www.w3.org/1999/xlink" style="isolation:isolate" viewBox="14.5 7.5 58.987 61.396" width="58.987pt" height="61.396pt"><g><linearGradient id="_lgradient_4" x1="0.4405773607628547" y1="0.42240388589723454" x2="0.36913238334185106" y2="0.3824467615556046"><stop offset="0%" stop-opacity="1" style="stop-color:rgb(255,255,255)"/><stop offset="100%" stop-opacity="1" style="stop-color:rgb(0,0,0)"/></linearGradient><path d=" M 58.049 9 L 71.987 46.693 L 16 67.396 L 16 9 L 58.049 9 L 58.049 9 Z " fill="rgb(0,0,0)" vector-effect="non-scaling-stroke" stroke-width="1" stroke="url(#_lgradient_4)" stroke-linejoin="miter" stroke-linecap="square" stroke-miterlimit="3"/><linearGradient id="_lgradient_5" x1="0" y1="0.5" x2="1" y2="0.5" gradientTransform="matrix(32,0,0,32,23,18)" gradientUnits="userSpaceOnUse"><stop offset="0%" stop-opacity="1" style="stop-color:rgb(0,255,255)"/><stop offset="99.1304347826087%" stop-opacity="1" style="stop-color:rgb(55,178,255)"/></linearGradient><path d=" M 43.197 33.357 L 55 45.161 C 55 45.161 55 45.161 55 45.161 L 52.902 47.259 C 51.744 48.417 49.863 48.417 48.705 47.259 L 39 37.554 L 26.554 50 C 26.554 50 26.554 50 26.554 50 L 24.456 47.902 C 23.298 46.744 23.298 44.863 24.456 43.705 L 34.803 33.357 L 23 21.554 C 23 21.554 23 21.554 23 21.554 L 25.098 19.456 C 26.256 18.298 28.137 18.298 29.295 19.456 L 39 29.161 L 50.161 18 C 50.161 18 50.161 18 50.161 18 L 52.259 20.098 C 53.417 21.256 53.417 23.137 52.259 24.295 L 43.197 33.357 Z " fill-rule="evenodd" fill="url(#_lgradient_5)"/></g></svg>