<?xml version="1.0" encoding="UTF-8" standalone="no"?><!-- Generator: Gravit.io --><svg xmlns="http://www.w3.org/2000/svg" xmlns:xlink="http://www.w3.org/1999/xlink" style="isolation:isolate" viewBox="341 79.773 142 47.001" width="142pt" height="47.001pt"><g><linearGradient id="_lgradient_1" x1="0" y1="0.5" x2="1" y2="0.5" gradientTransform="matrix(47,0,0,47.001,436,79.773)" gradientUnits="userSpaceOnUse"><stop offset="0%" stop-opacity="1" style="stop-color:rgb(0,255,255)"/><stop offset="97.82608695652173%" stop-opacity="1" style="stop-color:rgb(74,134,232)"/></linearGradient><path d=" M 482.999 82.712 C 482.999 80.719 481.062 79.315 479.18 79.911 L 449.806 88.586 C 448.585 88.972 447.75 90.101 447.75 91.386 L 447.75 115.383 C 446.827 115.165 445.848 115.023 444.812 115.023 C 439.945 115.023 436 117.653 436 120.898 C 436 124.144 439.945 126.773 444.812 126.773 C 449.68 126.773 453.625 124.144 453.625 120.898 L 453.625 99.446 L 477.125 92.56 L 477.125 109.508 C 476.202 109.29 475.223 109.148 474.187 109.148 C 469.32 109.148 465.375 111.778 465.375 115.023 C 465.375 118.269 469.32 120.898 474.187 120.898 C 479.055 120.898 483 118.269 483 115.023 L 482.999 82.712 Z " fill="url(#_lgradient_1)"/><linearGradient id="_lgradient_2" x1="0" y1="0.5" x2="1" y2="0.5" gradientTransform="matrix(62,0,0,41.333,341,84.773)" gradientUnits="userSpaceOnUse"><stop offset="0%" stop-opacity="1" style="stop-color:rgb(71,137,232)"/><stop offset="97.3913043478261%" stop-opacity="1" style="stop-color:rgb(7,243,253)"/></linearGradient><path d=" M 377.188 84.773 L 346.145 84.773 C 343.303 84.773 341 87.076 341 89.918 L 341 120.961 C 341 123.803 343.303 126.106 346.145 126.106 L 377.188 126.106 C 380.03 126.106 382.333 123.803 382.333 120.961 L 382.333 89.918 C 382.333 87.076 380.03 84.773 377.188 84.773 Z  M 397.575 88.831 L 385.778 96.968 L 385.778 113.911 L 397.575 122.037 C 399.857 123.609 403 122.005 403 119.26 L 403 91.608 C 403 88.874 399.868 87.259 397.575 88.831 Z " fill="url(#_lgradient_2)"/><linearGradient id="_lgradient_3" x1="0" y1="0.5" x2="1" y2="0.5" gradientTransform="matrix(0,33.05,-21.34,0,433,88.914)" gradientUnits="userSpaceOnUse"><stop offset="0%" stop-opacity="1" style="stop-color:rgb(255,0,255)"/><stop offset="97.82608695652173%" stop-opacity="1" style="stop-color:rgb(255,153,0)"/></linearGradient><path d=" M 432.273 107.195 L 418.232 121.236 C 417.261 122.207 415.692 122.207 414.731 121.236 L 412.398 118.903 C 411.427 117.932 411.427 116.363 412.398 115.403 L 422.341 105.439 L 412.388 95.486 C 411.417 94.516 411.417 92.946 412.388 91.986 L 414.721 89.642 C 415.692 88.672 417.261 88.672 418.221 89.642 L 432.263 103.684 C 433.244 104.655 433.244 106.224 432.273 107.195 L 432.273 107.195 Z " fill="url(#_lgradient_3)"/></g></svg>