<?xml version="1.0" encoding="UTF-8" standalone="no"?><!-- Generator: Gravit.io --><svg xmlns="http://www.w3.org/2000/svg" xmlns:xlink="http://www.w3.org/1999/xlink" style="isolation:isolate" viewBox="27 316.046 80 106.667" width="80pt" height="106.667pt"><path d=" M 87 367.713 L 87 373.546 C 87 374.921 85.875 376.046 84.5 376.046 L 49.5 376.046 C 48.125 376.046 47 374.921 47 373.546 L 47 367.713 C 47 366.338 48.125 365.213 49.5 365.213 L 84.5 365.213 C 85.875 365.213 87 366.338 87 367.713 Z  M 84.5 382.713 L 49.5 382.713 C 48.125 382.713 47 383.838 47 385.213 L 47 391.046 C 47 392.421 48.125 393.546 49.5 393.546 L 84.5 393.546 C 85.875 393.546 87 392.421 87 391.046 L 87 385.213 C 87 383.838 85.875 382.713 84.5 382.713 Z  M 107 343.526 L 107 412.713 C 107 418.234 102.521 422.713 97 422.713 L 37 422.713 C 31.479 422.713 27 418.234 27 412.713 L 27 326.046 C 27 320.526 31.479 316.046 37 316.046 L 79.521 316.046 C 82.167 316.046 84.708 317.109 86.583 318.984 L 104.062 336.463 C 105.937 338.317 107 340.88 107 343.526 Z  M 80.333 326.859 L 80.333 342.713 L 96.188 342.713 L 80.333 326.859 Z  M 97 412.713 L 97 352.713 L 75.333 352.713 C 72.562 352.713 70.333 350.484 70.333 347.713 L 70.333 326.046 L 37 326.046 L 37 412.713 L 97 412.713 Z " fill="rgb(255,0,255)"/></svg>