<?xml version="1.0" encoding="UTF-8" standalone="no"?><!-- Generator: Gravit.io --><svg xmlns="http://www.w3.org/2000/svg" xmlns:xlink="http://www.w3.org/1999/xlink" style="isolation:isolate" viewBox="23.925 854.58 80 105.374" width="80pt" height="105.374pt"><path d=" M 100.996 874.737 L 83.521 857.473 C 81.645 855.621 79.102 854.58 76.45 854.58 L 33.925 854.58 C 28.402 854.58 23.925 859.003 23.925 864.459 L 23.925 950.075 C 23.925 955.531 28.402 959.954 33.925 959.954 L 93.925 959.954 C 99.448 959.954 103.925 955.531 103.925 950.075 L 103.925 881.722 C 103.925 879.102 102.871 876.589 100.996 874.737 L 100.996 874.737 Z  M 93.116 880.923 L 77.258 880.923 L 77.258 865.258 L 93.116 880.923 Z  M 33.925 950.075 L 33.925 864.459 L 67.258 864.459 L 67.258 885.863 C 67.258 888.591 69.497 890.802 72.258 890.802 L 93.925 890.802 L 93.925 950.075 L 33.925 950.075 Z  M 63.925 934.428 C 63.925 936.629 61.232 937.731 59.657 936.175 L 52.258 928.771 L 46.425 928.771 C 45.044 928.771 43.925 927.665 43.925 926.301 L 43.925 914.776 C 43.925 913.412 45.044 912.306 46.425 912.306 L 52.258 912.306 L 59.657 904.702 C 61.232 903.146 63.925 904.248 63.925 906.448 L 63.925 934.428 Z  M 72.509 924.729 C 74.394 922.815 74.396 919.762 72.509 917.847 C 67.894 913.164 75.058 906.271 79.674 910.956 C 85.341 916.706 85.344 925.866 79.675 931.619 C 75.134 936.227 67.811 929.496 72.509 924.729 L 72.509 924.729 Z " fill="rgb(255,0,255)"/></svg>