<?xml version="1.0" encoding="UTF-8" standalone="no"?><!-- Generator: Gravit.io --><svg xmlns="http://www.w3.org/2000/svg" xmlns:xlink="http://www.w3.org/1999/xlink" style="isolation:isolate" viewBox="12.758 94.5 56 56" width="56pt" height="56pt"><g><circle vector-effect="non-scaling-stroke" cx="40.75832838907223" cy="122.5" r="27.500000000000004" fill="rgb(0,0,0)" stroke-width="1" stroke="rgb(0,255,255)" stroke-linejoin="miter" stroke-linecap="square" stroke-miterlimit="3"/><g><linearGradient id="_lgradient_0" x1="0" y1="0.5" x2="1" y2="0.5" gradientTransform="matrix(25.933,0,0,25.933,24.178,110.113)" gradientUnits="userSpaceOnUse"><stop offset="0%" stop-opacity="1" style="stop-color:rgb(0,255,255)"/><stop offset="97.82608695652173%" stop-opacity="1" style="stop-color:rgb(74,134,232)"/></linearGradient><path d=" M 50.111 111.734 C 50.111 110.635 49.042 109.86 48.004 110.189 L 31.796 114.976 C 31.122 115.188 30.662 115.811 30.662 116.52 L 30.662 129.761 C 30.153 129.641 29.612 129.563 29.041 129.563 C 26.355 129.563 24.178 131.014 24.178 132.804 C 24.178 134.595 26.355 136.046 29.041 136.046 C 31.726 136.046 33.903 134.595 33.903 132.804 L 33.903 120.968 L 46.87 117.168 L 46.87 126.52 C 46.36 126.399 45.82 126.321 45.249 126.321 C 42.563 126.321 40.386 127.772 40.386 129.563 C 40.386 131.353 42.563 132.804 45.249 132.804 C 47.934 132.804 50.111 131.353 50.111 129.563 L 50.111 111.734 Z " fill="url(#_lgradient_0)"/><path d=" M 22.976 114.22 L 25.961 113.977 L 22.265 120.968 L 28.505 112.252 L 25.447 112.633 L 27.719 105.247 L 22.976 114.22 Z " fill="rgb(0,255,255)"/><path d=" M 58.541 127.074 L 55.556 127.316 L 59.251 120.325 L 53.011 129.041 L 56.07 128.66 L 53.798 136.046 L 58.541 127.074 Z " fill="rgb(0,255,255)"/></g></g></svg>