<?xml version="1.0" encoding="UTF-8" standalone="no"?><!-- Generator: Gravit.io --><svg xmlns="http://www.w3.org/2000/svg" xmlns:xlink="http://www.w3.org/1999/xlink" style="isolation:isolate" viewBox="737.172 78 63.322 50.491" width="63.322pt" height="50.491pt"><linearGradient id="_lgradient_5" x1="0" y1="0.5" x2="1" y2="0.5" gradientTransform="matrix(63.322,0,0,50.491,737.172,78)" gradientUnits="userSpaceOnUse"><stop offset="0%" stop-opacity="1" style="stop-color:rgb(0,98,255)"/><stop offset="98.26086956521739%" stop-opacity="1" style="stop-color:rgb(0,255,255)"/></linearGradient><path d=" M 787.844 96.888 L 787.033 98.303 C 786.736 98.827 786.103 99.045 785.539 98.837 C 784.371 98.402 783.302 97.779 782.362 96.997 C 781.907 96.621 781.788 95.958 782.085 95.443 L 782.897 94.028 C 782.214 93.237 781.68 92.317 781.323 91.317 L 779.691 91.317 C 779.097 91.317 778.582 90.892 778.484 90.298 C 778.286 89.111 778.276 87.864 778.484 86.627 C 778.582 86.033 779.097 85.598 779.691 85.598 L 781.323 85.598 C 781.68 84.599 782.214 83.678 782.897 82.887 L 782.085 81.472 C 781.788 80.957 781.897 80.294 782.362 79.918 C 783.302 79.137 784.381 78.513 785.539 78.078 C 786.103 77.87 786.736 78.088 787.033 78.612 L 787.844 80.027 C 788.883 79.839 789.942 79.839 790.981 80.027 L 791.792 78.612 C 792.089 78.088 792.722 77.87 793.286 78.078 C 794.454 78.513 795.522 79.137 796.462 79.918 C 796.918 80.294 797.036 80.957 796.74 81.472 L 795.928 82.887 C 796.611 83.678 797.145 84.599 797.501 85.598 L 799.134 85.598 C 799.728 85.598 800.242 86.023 800.341 86.617 C 800.539 87.805 800.549 89.051 800.341 90.288 C 800.242 90.882 799.728 91.317 799.134 91.317 L 797.501 91.317 C 797.145 92.317 796.611 93.237 795.928 94.028 L 796.74 95.443 C 797.036 95.958 796.928 96.621 796.462 96.997 C 795.522 97.779 794.444 98.402 793.286 98.837 C 792.722 99.045 792.089 98.827 791.792 98.303 L 790.981 96.888 C 789.952 97.076 788.883 97.076 787.844 96.888 L 787.844 96.888 Z  M 786.805 91.07 C 790.615 93.999 794.958 89.655 792.03 85.845 C 788.22 82.907 783.876 87.26 786.805 91.07 L 786.805 91.07 Z  M 775.396 106.298 L 778.731 107.96 C 779.73 108.534 780.166 109.751 779.77 110.84 C 778.889 113.234 777.158 115.431 775.555 117.351 C 774.822 118.231 773.556 118.449 772.556 117.875 L 769.677 116.213 C 768.094 117.568 766.253 118.647 764.245 119.349 L 764.245 122.674 C 764.245 123.822 763.424 124.811 762.296 125.009 C 759.861 125.425 757.309 125.445 754.785 125.009 C 753.647 124.811 752.806 123.832 752.806 122.674 L 752.806 119.349 C 750.798 118.637 748.957 117.568 747.374 116.213 L 744.495 117.865 C 743.505 118.439 742.229 118.221 741.497 117.341 C 739.894 115.421 738.202 113.224 737.321 110.84 C 736.925 109.761 737.36 108.544 738.36 107.96 L 741.655 106.298 C 741.269 104.23 741.269 102.103 741.655 100.025 L 738.36 98.352 C 737.36 97.779 736.915 96.562 737.321 95.483 C 738.202 93.088 739.894 90.892 741.497 88.972 C 742.229 88.092 743.495 87.874 744.495 88.448 L 747.374 90.11 C 748.957 88.754 750.798 87.676 752.806 86.973 L 752.806 83.639 C 752.806 82.501 753.618 81.511 754.746 81.314 C 757.18 80.898 759.743 80.878 762.266 81.304 C 763.404 81.502 764.245 82.481 764.245 83.639 L 764.245 86.964 C 766.253 87.676 768.094 88.745 769.677 90.1 L 772.556 88.438 C 773.546 87.864 774.822 88.082 775.555 88.962 C 777.158 90.882 778.84 93.079 779.72 95.473 C 780.116 96.552 779.73 97.769 778.731 98.352 L 775.396 100.015 C 775.782 102.093 775.782 104.22 775.396 106.298 L 775.396 106.298 Z  M 763.76 108.386 C 769.618 100.767 760.92 92.069 753.301 97.927 C 747.443 105.546 756.141 114.244 763.76 108.386 Z  M 787.844 126.464 L 787.033 127.879 C 786.736 128.403 786.103 128.621 785.539 128.413 C 784.371 127.978 783.302 127.354 782.362 126.573 C 781.907 126.197 781.788 125.534 782.085 125.019 L 782.897 123.604 C 782.214 122.813 781.68 121.892 781.323 120.893 L 779.691 120.893 C 779.097 120.893 778.582 120.467 778.484 119.874 C 778.286 118.686 778.276 117.44 778.484 116.203 C 778.582 115.609 779.097 115.174 779.691 115.174 L 781.323 115.174 C 781.68 114.174 782.214 113.254 782.897 112.463 L 782.085 111.048 C 781.788 110.533 781.897 109.87 782.362 109.494 C 783.302 108.712 784.381 108.089 785.539 107.654 C 786.103 107.446 786.736 107.664 787.033 108.188 L 787.844 109.603 C 788.883 109.415 789.942 109.415 790.981 109.603 L 791.792 108.188 C 792.089 107.664 792.722 107.446 793.286 107.654 C 794.454 108.089 795.522 108.712 796.462 109.494 C 796.918 109.87 797.036 110.533 796.74 111.048 L 795.928 112.463 C 796.611 113.254 797.145 114.174 797.501 115.174 L 799.134 115.174 C 799.728 115.174 800.242 115.599 800.341 116.193 C 800.539 117.38 800.549 118.627 800.341 119.864 C 800.242 120.458 799.728 120.893 799.134 120.893 L 797.501 120.893 C 797.145 121.892 796.611 122.813 795.928 123.604 L 796.74 125.019 C 797.036 125.534 796.928 126.197 796.462 126.573 C 795.522 127.354 794.444 127.978 793.286 128.413 C 792.722 128.621 792.089 128.403 791.792 127.879 L 790.981 126.464 C 789.952 126.652 788.883 126.652 787.844 126.464 Z  M 786.805 120.636 C 790.615 123.565 794.958 119.221 792.03 115.411 C 788.22 112.482 783.876 116.826 786.805 120.636 L 786.805 120.636 Z " fill="url(#_lgradient_5)"/></svg>