<?xml version="1.0" encoding="UTF-8" standalone="no"?><!-- Generator: Gravit.io --><svg xmlns="http://www.w3.org/2000/svg" xmlns:xlink="http://www.w3.org/1999/xlink" style="isolation:isolate" viewBox="23.75 568.048 59.725 59.159" width="59.725pt" height="59.159pt"><path d=" M 72.574 578.27 L 72.574 571.721 C 72.574 570.936 71.937 570.298 71.152 570.298 L 70.917 570.298 C 70.132 570.298 69.495 570.936 69.495 571.721 L 69.495 578.27 L 62.29 578.27 C 61.492 578.27 60.844 578.918 60.844 579.716 L 60.844 579.903 C 60.844 580.701 61.492 581.349 62.29 581.349 L 69.495 581.349 L 69.495 588.578 C 69.495 589.363 70.132 590 70.917 590 L 71.152 590 C 71.937 590 72.574 589.363 72.574 588.578 L 72.574 581.349 L 79.778 581.349 C 80.577 581.349 81.225 580.701 81.225 579.903 L 81.225 579.716 C 81.225 578.918 80.577 578.27 79.778 578.27 L 72.574 578.27 L 72.574 578.27 Z  M 65.821 587.625 C 65.821 585.936 64.18 584.746 62.585 585.252 L 37.698 592.602 C 36.663 592.929 35.955 593.885 35.955 594.974 L 35.955 615.307 C 35.174 615.121 34.344 615.002 33.467 615.002 C 29.343 615.002 26 617.23 26 619.979 C 26 622.729 29.343 624.957 33.467 624.957 C 37.59 624.957 40.933 622.729 40.933 619.979 L 40.933 601.804 L 60.844 595.969 L 60.844 610.329 C 60.062 610.144 59.232 610.024 58.355 610.024 C 54.231 610.024 50.889 612.252 50.889 615.002 C 50.889 617.751 54.231 619.979 58.355 619.979 C 62.479 619.979 65.822 617.751 65.822 615.002 L 65.821 587.625 Z " fill-rule="evenodd" fill="rgb(0,255,85)" fill-opacity="0.16" vector-effect="non-scaling-stroke" stroke-width="1.5" stroke="rgb(0,215,118)" stroke-linejoin="miter" stroke-linecap="square" stroke-miterlimit="3"/></svg>