<?xml version="1.0" encoding="UTF-8" standalone="no"?><!-- Generator: Gravit.io --><svg xmlns="http://www.w3.org/2000/svg" xmlns:xlink="http://www.w3.org/1999/xlink" style="isolation:isolate" viewBox="501 25.906 80.999 81" width="80.999pt" height="81pt"><mask id="_mask_Pr5DW8ybvddZDVnVHcylL058eHQtLCgh" x="-200%" y="-200%" width="400%" height="400%"><rect x="-200%" y="-200%" width="400%" height="400%" style="fill:white;"/><path d=" M 577.997 34.471 C 577.997 31.376 574.989 29.195 572.066 30.121 L 526.443 43.595 C 524.547 44.194 523.25 45.947 523.25 47.943 L 523.25 85.215 C 521.817 84.876 520.296 84.657 518.687 84.657 C 511.128 84.657 505 88.741 505 93.781 C 505 98.821 511.128 102.906 518.687 102.906 C 526.247 102.906 532.375 98.821 532.375 93.781 L 532.375 60.463 L 568.874 49.767 L 568.874 76.091 C 567.441 75.751 565.92 75.532 564.311 75.532 C 556.752 75.532 550.624 79.617 550.624 84.657 C 550.624 89.697 556.752 93.781 564.311 93.781 C 571.871 93.781 577.999 89.697 577.999 84.657 L 577.997 34.471 Z " fill="black" stroke="none"/></mask><linearGradient id="_lgradient_0" x1="0" y1="0.5" x2="1" y2="0.5"><stop offset="0%" stop-opacity="1" style="stop-color:rgb(255,153,0)"/><stop offset="97.82608695652173%" stop-opacity="1" style="stop-color:rgb(255,0,255)"/></linearGradient><path d=" M 577.997 34.471 C 577.997 31.376 574.989 29.195 572.066 30.121 L 526.443 43.595 C 524.547 44.194 523.25 45.947 523.25 47.943 L 523.25 85.215 C 521.817 84.876 520.296 84.657 518.687 84.657 C 511.128 84.657 505 88.741 505 93.781 C 505 98.821 511.128 102.906 518.687 102.906 C 526.247 102.906 532.375 98.821 532.375 93.781 L 532.375 60.463 L 568.874 49.767 L 568.874 76.091 C 567.441 75.751 565.92 75.532 564.311 75.532 C 556.752 75.532 550.624 79.617 550.624 84.657 C 550.624 89.697 556.752 93.781 564.311 93.781 C 571.871 93.781 577.999 89.697 577.999 84.657 L 577.997 34.471 Z " fill="none" mask="url(#_mask_Pr5DW8ybvddZDVnVHcylL058eHQtLCgh)" vector-effect="non-scaling-stroke" stroke-width="2" stroke="url(#_lgradient_0)" stroke-linejoin="miter" stroke-linecap="butt" stroke-miterlimit="4"/><path d=" M 577.997 34.471 C 577.997 31.376 574.989 29.195 572.066 30.121 L 526.443 43.595 C 524.547 44.194 523.25 45.947 523.25 47.943 L 523.25 85.215 C 521.817 84.876 520.296 84.657 518.687 84.657 C 511.128 84.657 505 88.741 505 93.781 C 505 98.821 511.128 102.906 518.687 102.906 C 526.247 102.906 532.375 98.821 532.375 93.781 L 532.375 60.463 L 568.874 49.767 L 568.874 76.091 C 567.441 75.751 565.92 75.532 564.311 75.532 C 556.752 75.532 550.624 79.617 550.624 84.657 C 550.624 89.697 556.752 93.781 564.311 93.781 C 571.871 93.781 577.999 89.697 577.999 84.657 L 577.997 34.471 Z " fill="none"/></svg>