<?xml version="1.0" encoding="UTF-8" standalone="no"?><!-- Generator: Gravit.io --><svg xmlns="http://www.w3.org/2000/svg" xmlns:xlink="http://www.w3.org/1999/xlink" style="isolation:isolate" viewBox="14.852 750.449 55.148 44.051" width="55.148pt" height="44.051pt"><g><g><linearGradient id="_lgradient_0" x1="0.5" y1="0.5" x2="0.9059709192481191" y2="0.6509780422099722" gradientTransform="matrix(-2.026,3.529,16.244,9.323,14.852,750.449)" gradientUnits="userSpaceOnUse"><stop offset="0%" stop-opacity="1" style="stop-color:rgb(52,183,255)"/><stop offset="100%" stop-opacity="1" style="stop-color:rgb(0,255,255)"/></linearGradient><path d=" M 14.852 750.449 L 25.188 756.382 L 21.317 758.852 L 29.07 763.302" fill="url(#_lgradient_0)"/><linearGradient id="_lgradient_1" x1="0.5" y1="0.5" x2="0.9059709192481191" y2="0.6509780422099722" gradientTransform="matrix(1.846,3.626,-16.691,8.497,70,750.813)" gradientUnits="userSpaceOnUse"><stop offset="2.608695652173913%" stop-opacity="1" style="stop-color:rgb(53,181,255)"/><stop offset="100%" stop-opacity="1" style="stop-color:rgb(0,255,255)"/></linearGradient><path d=" M 70 750.813 L 59.379 756.221 L 63.121 758.882 L 55.155 762.937" fill="url(#_lgradient_1)"/></g><g><linearGradient id="_lgradient_2" x1="0.5" y1="0.5" x2="0.9059709192481191" y2="0.6509780422099722" gradientTransform="matrix(-2.026,-3.529,16.244,-9.323,16.886,794.5)" gradientUnits="userSpaceOnUse"><stop offset="0%" stop-opacity="1" style="stop-color:rgb(52,183,255)"/><stop offset="100%" stop-opacity="1" style="stop-color:rgb(0,255,255)"/></linearGradient><path d=" M 16.886 794.5 L 27.223 788.567 L 23.351 786.097 L 31.104 781.647" fill="url(#_lgradient_2)"/><linearGradient id="_lgradient_3" x1="0.5" y1="0.5" x2="0.9059709192481191" y2="0.6509780422099722" gradientTransform="matrix(1.846,-3.626,-16.691,-8.497,65.931,794.135)" gradientUnits="userSpaceOnUse"><stop offset="2.608695652173913%" stop-opacity="1" style="stop-color:rgb(53,181,255)"/><stop offset="100%" stop-opacity="1" style="stop-color:rgb(0,255,255)"/></linearGradient><path d=" M 65.931 794.135 L 55.309 788.728 L 59.052 786.067 L 51.086 782.012" fill="url(#_lgradient_3)"/></g><g><linearGradient id="_lgradient_4" x1="0" y1="0.5" x2="1" y2="0.5"><stop offset="0%" stop-opacity="1" style="stop-color:rgb(0,255,255)"/><stop offset="99.56521739130434%" stop-opacity="1" style="stop-color:rgb(0,60,255)"/><stop offset="100%" stop-opacity="1" style="stop-color:rgb(0,0,0)"/></linearGradient><circle vector-effect="non-scaling-stroke" cx="41.92998150190451" cy="771.499339841937" r="17.972951069147072" fill="none" stroke-width="3" stroke="url(#_lgradient_4)" stroke-linejoin="miter" stroke-linecap="square" stroke-miterlimit="3"/><defs><linearGradient id="_lgradient_5" x1="-0.05555555555555713" y1="0.29342779647593176" x2="0.38888888888888934" y2="0.908812411860545"><stop offset="0%" style="stop-color:#00FFFF"/><stop offset="97.82608695652173%" style="stop-color:#01B3FF"/></linearGradient></defs><path d="M 35.876 762.682 L 37.314 762.682 C 38.767 762.682 39.946 763.862 39.946 765.314 L 39.946 780.316 L 38.85 780.316 C 37.209 780.316 35.876 778.984 35.876 777.343 L 35.876 762.682 Z" style="stroke:none;fill:url(#_lgradient_5);stroke-miterlimit:10;"/><defs><linearGradient id="_lgradient_6" x1="-0.05555555555555713" y1="0.29342779647593176" x2="0.38888888888888934" y2="0.908812411860545"><stop offset="0%" style="stop-color:#00FFFF"/><stop offset="98.26086956521739%" style="stop-color:#01B3FF"/></linearGradient></defs><path d="M 44.015 762.682 L 44.965 762.682 C 46.687 762.682 48.085 764.08 48.085 765.802 L 48.085 780.316 L 46.999 780.316 C 45.352 780.316 44.015 778.979 44.015 777.332 L 44.015 762.682 Z" style="stroke:none;fill:url(#_lgradient_6);stroke-miterlimit:10;"/></g></g></svg>