<?xml version="1.0" encoding="UTF-8" standalone="no"?><!-- Generator: Gravit.io --><svg xmlns="http://www.w3.org/2000/svg" xmlns:xlink="http://www.w3.org/1999/xlink" style="isolation:isolate" viewBox="699.512 48.997 520.975 499.283" width="520.975pt" height="499.283pt"><g><linearGradient id="_lgradient_0" x1="0" y1="0.5" x2="1" y2="0.5" gradientTransform="matrix(626.987,0,0,596.3,646.507,-8.522)" gradientUnits="userSpaceOnUse"><stop offset="0%" stop-opacity="1" style="stop-color:rgb(74,134,232)"/><stop offset="97.82608695652173%" stop-opacity="1" style="stop-color:rgb(153,0,255)"/></linearGradient><path d=" M 1056.875 536.848 L 1056.875 536.848 C 1003.408 508.739 916.592 508.739 863.125 536.848 L 863.125 536.848 C 809.659 564.957 774.541 539.442 784.752 479.906 L 784.752 479.906 C 794.963 420.37 768.135 337.803 724.88 295.639 L 724.88 295.639 C 681.624 253.476 695.038 212.192 754.816 203.506 L 754.816 203.506 C 814.593 194.82 884.829 143.791 911.563 89.623 L 911.563 89.623 C 938.296 35.455 981.704 35.455 1008.437 89.623 L 1008.437 89.623 C 1035.171 143.791 1105.407 194.82 1165.184 203.506 L 1165.184 203.506 C 1224.962 212.192 1238.376 253.476 1195.12 295.639 L 1195.12 295.639 C 1151.865 337.803 1125.037 420.37 1135.248 479.906 L 1135.248 479.906 C 1145.459 539.442 1110.341 564.957 1056.875 536.848 Z " fill="url(#_lgradient_0)"/><g><path d=" M 1025.315 242.397 C 1025.315 234.717 1017.852 229.305 1010.6 231.605 L 897.409 265.032 C 892.704 266.518 889.485 270.869 889.485 275.821 L 889.485 368.294 C 885.93 367.452 882.156 366.907 878.166 366.907 C 859.411 366.907 844.208 377.042 844.208 389.546 C 844.208 402.051 859.411 412.185 878.166 412.185 C 896.921 412.185 912.124 402.051 912.124 389.546 L 912.124 306.882 L 1002.68 280.345 L 1002.68 345.655 C 999.125 344.813 995.351 344.269 991.36 344.269 C 972.606 344.269 957.402 354.403 957.402 366.907 C 957.402 379.412 972.606 389.546 991.36 389.546 C 1010.115 389.546 1025.319 379.412 1025.319 366.907 L 1025.315 242.397 Z " fill="rgb(255,255,255)"/><path d=" M 835.808 259.753 L 856.655 258.062 L 830.847 306.882 L 874.426 246.013 L 853.068 248.67 L 868.933 197.092 L 835.808 259.753 Z " fill="rgb(255,255,255)"/><path d=" M 1084.192 349.524 L 1063.345 351.215 L 1089.153 302.394 L 1045.574 363.264 L 1066.932 360.607 L 1051.067 412.185 L 1084.192 349.524 Z " fill="rgb(255,255,255)"/></g></g></svg>