<?xml version="1.0" encoding="UTF-8" standalone="no"?><!-- Generator: Gravit.io --><svg xmlns="http://www.w3.org/2000/svg" xmlns:xlink="http://www.w3.org/1999/xlink" style="isolation:isolate" viewBox="90.075 548 194.85 216" width="194.85pt" height="216pt"><g><defs><radialGradient id="_rgradient_5" fx="50%" fy="50%" cx="50%" cy="50%" r="50%"><stop offset="0%" style="stop-color:#171717"/><stop offset="100%" style="stop-color:#0B0A0A"/></radialGradient></defs><path d="M 135.342 548 L 284.925 548 L 284.925 719 C 284.925 743.836 264.761 764 239.925 764 L 90.075 764 L 90.075 593.267 C 90.075 568.284 110.359 548 135.342 548 Z" style="stroke:none;fill:url(#_rgradient_5);stroke-miterlimit:10;"/><g><path d=" M 245.664 738.259 L 237.705 738.259 L 237.705 723.981 L 239.365 723.981 L 239.365 736.755 L 245.664 736.755 L 245.664 738.259 L 245.664 738.259 Z  M 249.463 727.556 L 249.463 738.259 L 247.842 738.259 L 247.842 727.556 L 249.463 727.556 L 249.463 727.556 Z  M 247.705 724.655 L 247.705 724.655 L 247.705 724.655 Q 247.705 724.099 247.979 723.84 L 247.979 723.84 L 247.979 723.84 Q 248.252 723.581 248.662 723.581 L 248.662 723.581 L 248.662 723.581 Q 249.053 723.581 249.336 723.845 L 249.336 723.845 L 249.336 723.845 Q 249.619 724.108 249.619 724.655 L 249.619 724.655 L 249.619 724.655 Q 249.619 725.202 249.336 725.471 L 249.336 725.471 L 249.336 725.471 Q 249.053 725.739 248.662 725.739 L 248.662 725.739 L 248.662 725.739 Q 248.252 725.739 247.979 725.471 L 247.979 725.471 L 247.979 725.471 Q 247.705 725.202 247.705 724.655 Z  M 259.805 735.339 L 259.805 735.339 L 259.805 735.339 Q 259.805 736.833 258.691 737.644 L 258.691 737.644 L 258.691 737.644 Q 257.578 738.454 255.566 738.454 L 255.566 738.454 L 255.566 738.454 Q 253.438 738.454 252.246 737.78 L 252.246 737.78 L 252.246 736.276 L 252.246 736.276 Q 253.018 736.667 253.901 736.892 L 253.901 736.892 L 253.901 736.892 Q 254.785 737.116 255.605 737.116 L 255.605 737.116 L 255.605 737.116 Q 256.875 737.116 257.559 736.711 L 257.559 736.711 L 257.559 736.711 Q 258.242 736.306 258.242 735.476 L 258.242 735.476 L 258.242 735.476 Q 258.242 734.851 257.7 734.406 L 257.7 734.406 L 257.7 734.406 Q 257.158 733.962 255.586 733.356 L 255.586 733.356 L 255.586 733.356 Q 254.092 732.8 253.462 732.385 L 253.462 732.385 L 253.462 732.385 Q 252.832 731.97 252.524 731.442 L 252.524 731.442 L 252.524 731.442 Q 252.217 730.915 252.217 730.183 L 252.217 730.183 L 252.217 730.183 Q 252.217 728.874 253.281 728.117 L 253.281 728.117 L 253.281 728.117 Q 254.346 727.36 256.201 727.36 L 256.201 727.36 L 256.201 727.36 Q 257.93 727.36 259.58 728.063 L 259.58 728.063 L 259.004 729.382 L 259.004 729.382 Q 257.393 728.718 256.084 728.718 L 256.084 728.718 L 256.084 728.718 Q 254.932 728.718 254.346 729.079 L 254.346 729.079 L 254.346 729.079 Q 253.76 729.44 253.76 730.075 L 253.76 730.075 L 253.76 730.075 Q 253.76 730.505 253.979 730.808 L 253.979 730.808 L 253.979 730.808 Q 254.199 731.11 254.688 731.384 L 254.688 731.384 L 254.688 731.384 Q 255.176 731.657 256.563 732.175 L 256.563 732.175 L 256.563 732.175 Q 258.467 732.868 259.136 733.571 L 259.136 733.571 L 259.136 733.571 Q 259.805 734.274 259.805 735.339 Z  M 265.898 737.116 L 265.898 737.116 L 265.898 737.116 Q 266.328 737.116 266.729 737.053 L 266.729 737.053 L 266.729 737.053 Q 267.129 736.989 267.363 736.921 L 267.363 736.921 L 267.363 738.161 L 267.363 738.161 Q 267.1 738.288 266.587 738.371 L 266.587 738.371 L 266.587 738.371 Q 266.074 738.454 265.664 738.454 L 265.664 738.454 L 265.664 738.454 Q 262.559 738.454 262.559 735.183 L 262.559 735.183 L 262.559 728.815 L 261.025 728.815 L 261.025 728.034 L 262.559 727.36 L 263.242 725.075 L 264.18 725.075 L 264.18 727.556 L 267.285 727.556 L 267.285 728.815 L 264.18 728.815 L 264.18 735.114 L 264.18 735.114 Q 264.18 736.081 264.639 736.599 L 264.639 736.599 L 264.639 736.599 Q 265.098 737.116 265.898 737.116 Z  M 194.277 734.46 L 194.277 734.46 L 194.277 734.46 Q 194.277 736.345 192.91 737.399 L 192.91 737.399 L 192.91 737.399 Q 191.543 738.454 189.199 738.454 L 189.199 738.454 L 189.199 738.454 Q 186.66 738.454 185.293 737.8 L 185.293 737.8 L 185.293 736.198 L 185.293 736.198 Q 186.172 736.569 187.207 736.784 L 187.207 736.784 L 187.207 736.784 Q 188.242 736.999 189.258 736.999 L 189.258 736.999 L 189.258 736.999 Q 190.918 736.999 191.758 736.369 L 191.758 736.369 L 191.758 736.369 Q 192.598 735.739 192.598 734.616 L 192.598 734.616 L 192.598 734.616 Q 192.598 733.874 192.3 733.4 L 192.3 733.4 L 192.3 733.4 Q 192.002 732.927 191.304 732.526 L 191.304 732.526 L 191.304 732.526 Q 190.605 732.126 189.18 731.618 L 189.18 731.618 L 189.18 731.618 Q 187.188 730.905 186.333 729.929 L 186.333 729.929 L 186.333 729.929 Q 185.479 728.952 185.479 727.38 L 185.479 727.38 L 185.479 727.38 Q 185.479 725.729 186.719 724.753 L 186.719 724.753 L 186.719 724.753 Q 187.959 723.776 190 723.776 L 190 723.776 L 190 723.776 Q 192.129 723.776 193.916 724.558 L 193.916 724.558 L 193.398 726.003 L 193.398 726.003 Q 191.631 725.261 189.961 725.261 L 189.961 725.261 L 189.961 725.261 Q 188.643 725.261 187.9 725.827 L 187.9 725.827 L 187.9 725.827 Q 187.158 726.394 187.158 727.399 L 187.158 727.399 L 187.158 727.399 Q 187.158 728.142 187.432 728.615 L 187.432 728.615 L 187.432 728.615 Q 187.705 729.089 188.354 729.484 L 188.354 729.484 L 188.354 729.484 Q 189.004 729.88 190.342 730.358 L 190.342 730.358 L 190.342 730.358 Q 192.588 731.159 193.433 732.077 L 193.433 732.077 L 193.433 732.077 Q 194.277 732.995 194.277 734.46 Z  M 206.191 732.897 L 206.191 732.897 L 206.191 732.897 Q 206.191 735.515 204.873 736.984 L 204.873 736.984 L 204.873 736.984 Q 203.555 738.454 201.23 738.454 L 201.23 738.454 L 201.23 738.454 Q 199.795 738.454 198.682 737.78 L 198.682 737.78 L 198.682 737.78 Q 197.568 737.106 196.963 735.847 L 196.963 735.847 L 196.963 735.847 Q 196.357 734.587 196.357 732.897 L 196.357 732.897 L 196.357 732.897 Q 196.357 730.28 197.666 728.82 L 197.666 728.82 L 197.666 728.82 Q 198.975 727.36 201.299 727.36 L 201.299 727.36 L 201.299 727.36 Q 203.545 727.36 204.868 728.854 L 204.868 728.854 L 204.868 728.854 Q 206.191 730.349 206.191 732.897 Z  M 198.037 732.897 L 198.037 732.897 L 198.037 732.897 Q 198.037 734.948 198.857 736.022 L 198.857 736.022 L 198.857 736.022 Q 199.678 737.097 201.27 737.097 L 201.27 737.097 L 201.27 737.097 Q 202.861 737.097 203.687 736.027 L 203.687 736.027 L 203.687 736.027 Q 204.512 734.958 204.512 732.897 L 204.512 732.897 L 204.512 732.897 Q 204.512 730.856 203.687 729.797 L 203.687 729.797 L 203.687 729.797 Q 202.861 728.737 201.25 728.737 L 201.25 728.737 L 201.25 728.737 Q 199.658 728.737 198.848 729.782 L 198.848 729.782 L 198.848 729.782 Q 198.037 730.827 198.037 732.897 Z  M 217.979 738.259 L 216.357 738.259 L 216.357 731.335 L 216.357 731.335 Q 216.357 730.026 215.762 729.382 L 215.762 729.382 L 215.762 729.382 Q 215.166 728.737 213.896 728.737 L 213.896 728.737 L 213.896 728.737 Q 212.217 728.737 211.436 729.646 L 211.436 729.646 L 211.436 729.646 Q 210.654 730.554 210.654 732.644 L 210.654 732.644 L 210.654 738.259 L 209.033 738.259 L 209.033 727.556 L 210.352 727.556 L 210.615 729.021 L 210.693 729.021 L 210.693 729.021 Q 211.191 728.229 212.09 727.795 L 212.09 727.795 L 212.09 727.795 Q 212.988 727.36 214.092 727.36 L 214.092 727.36 L 214.092 727.36 Q 216.025 727.36 217.002 728.293 L 217.002 728.293 L 217.002 728.293 Q 217.979 729.226 217.979 731.276 L 217.979 731.276 L 217.979 738.259 L 217.979 738.259 Z  M 226.367 727.556 L 230.068 727.556 L 230.068 728.581 L 228.086 728.815 L 228.086 728.815 Q 228.359 729.157 228.574 729.709 L 228.574 729.709 L 228.574 729.709 Q 228.789 730.261 228.789 730.954 L 228.789 730.954 L 228.789 730.954 Q 228.789 732.526 227.715 733.464 L 227.715 733.464 L 227.715 733.464 Q 226.641 734.401 224.766 734.401 L 224.766 734.401 L 224.766 734.401 Q 224.287 734.401 223.867 734.323 L 223.867 734.323 L 223.867 734.323 Q 222.832 734.87 222.832 735.7 L 222.832 735.7 L 222.832 735.7 Q 222.832 736.14 223.193 736.35 L 223.193 736.35 L 223.193 736.35 Q 223.555 736.56 224.434 736.56 L 224.434 736.56 L 226.328 736.56 L 226.328 736.56 Q 228.066 736.56 228.999 737.292 L 228.999 737.292 L 228.999 737.292 Q 229.932 738.024 229.932 739.421 L 229.932 739.421 L 229.932 739.421 Q 229.932 741.198 228.506 742.131 L 228.506 742.131 L 228.506 742.131 Q 227.08 743.063 224.346 743.063 L 224.346 743.063 L 224.346 743.063 Q 222.246 743.063 221.108 742.282 L 221.108 742.282 L 221.108 742.282 Q 219.971 741.501 219.971 740.075 L 219.971 740.075 L 219.971 740.075 Q 219.971 739.099 220.596 738.386 L 220.596 738.386 L 220.596 738.386 Q 221.221 737.673 222.354 737.419 L 222.354 737.419 L 222.354 737.419 Q 221.943 737.233 221.665 736.843 L 221.665 736.843 L 221.665 736.843 Q 221.387 736.452 221.387 735.935 L 221.387 735.935 L 221.387 735.935 Q 221.387 735.349 221.699 734.909 L 221.699 734.909 L 221.699 734.909 Q 222.012 734.47 222.686 734.06 L 222.686 734.06 L 222.686 734.06 Q 221.855 733.718 221.333 732.897 L 221.333 732.897 L 221.333 732.897 Q 220.811 732.077 220.811 731.022 L 220.811 731.022 L 220.811 731.022 Q 220.811 729.265 221.865 728.313 L 221.865 728.313 L 221.865 728.313 Q 222.92 727.36 224.854 727.36 L 224.854 727.36 L 224.854 727.36 Q 225.693 727.36 226.367 727.556 L 226.367 727.556 L 226.367 727.556 Z  M 221.533 740.056 L 221.533 740.056 L 221.533 740.056 Q 221.533 740.925 222.266 741.374 L 222.266 741.374 L 222.266 741.374 Q 222.998 741.823 224.365 741.823 L 224.365 741.823 L 224.365 741.823 Q 226.406 741.823 227.388 741.213 L 227.388 741.213 L 227.388 741.213 Q 228.369 740.603 228.369 739.558 L 228.369 739.558 L 228.369 739.558 Q 228.369 738.688 227.832 738.352 L 227.832 738.352 L 227.832 738.352 Q 227.295 738.015 225.811 738.015 L 225.811 738.015 L 223.867 738.015 L 223.867 738.015 Q 222.764 738.015 222.148 738.542 L 222.148 738.542 L 222.148 738.542 Q 221.533 739.069 221.533 740.056 Z  M 222.412 730.983 L 222.412 730.983 L 222.412 730.983 Q 222.412 732.106 223.047 732.683 L 223.047 732.683 L 223.047 732.683 Q 223.682 733.259 224.814 733.259 L 224.814 733.259 L 224.814 733.259 Q 227.188 733.259 227.188 730.954 L 227.188 730.954 L 227.188 730.954 Q 227.188 728.542 224.785 728.542 L 224.785 728.542 L 224.785 728.542 Q 223.643 728.542 223.027 729.157 L 223.027 729.157 L 223.027 729.157 Q 222.412 729.772 222.412 730.983 Z  M 114.102 732.321 L 111.123 732.321 L 111.123 738.259 L 109.463 738.259 L 109.463 723.981 L 113.379 723.981 L 113.379 723.981 Q 116.006 723.981 117.261 724.987 L 117.261 724.987 L 117.261 724.987 Q 118.516 725.993 118.516 728.015 L 118.516 728.015 L 118.516 728.015 Q 118.516 730.847 115.645 731.843 L 115.645 731.843 L 119.521 738.259 L 117.559 738.259 L 114.102 732.321 L 114.102 732.321 Z  M 111.123 725.437 L 111.123 730.896 L 113.398 730.896 L 113.398 730.896 Q 115.156 730.896 115.977 730.197 L 115.977 730.197 L 115.977 730.197 Q 116.797 729.499 116.797 728.103 L 116.797 728.103 L 116.797 728.103 Q 116.797 726.687 115.962 726.062 L 115.962 726.062 L 115.962 726.062 Q 115.127 725.437 113.281 725.437 L 113.281 725.437 L 111.123 725.437 L 111.123 725.437 Z  M 126.104 738.454 L 126.104 738.454 L 126.104 738.454 Q 123.73 738.454 122.358 737.009 L 122.358 737.009 L 122.358 737.009 Q 120.986 735.563 120.986 732.995 L 120.986 732.995 L 120.986 732.995 Q 120.986 730.407 122.261 728.884 L 122.261 728.884 L 122.261 728.884 Q 123.535 727.36 125.684 727.36 L 125.684 727.36 L 125.684 727.36 Q 127.695 727.36 128.867 728.684 L 128.867 728.684 L 128.867 728.684 Q 130.039 730.007 130.039 732.175 L 130.039 732.175 L 130.039 733.2 L 122.666 733.2 L 122.666 733.2 Q 122.715 735.085 123.618 736.062 L 123.618 736.062 L 123.618 736.062 Q 124.521 737.038 126.162 737.038 L 126.162 737.038 L 126.162 737.038 Q 127.891 737.038 129.58 736.315 L 129.58 736.315 L 129.58 737.761 L 129.58 737.761 Q 128.721 738.132 127.954 738.293 L 127.954 738.293 L 127.954 738.293 Q 127.188 738.454 126.104 738.454 Z  M 125.664 728.718 L 125.664 728.718 L 125.664 728.718 Q 124.375 728.718 123.608 729.558 L 123.608 729.558 L 123.608 729.558 Q 122.842 730.397 122.705 731.882 L 122.705 731.882 L 128.301 731.882 L 128.301 731.882 Q 128.301 730.349 127.617 729.533 L 127.617 729.533 L 127.617 729.533 Q 126.934 728.718 125.664 728.718 Z  M 137.627 727.556 L 137.627 728.815 L 134.902 728.815 L 134.902 738.259 L 133.281 738.259 L 133.281 728.815 L 131.367 728.815 L 131.367 728.083 L 133.281 727.497 L 133.281 726.901 L 133.281 726.901 Q 133.281 722.956 136.729 722.956 L 136.729 722.956 L 136.729 722.956 Q 137.578 722.956 138.721 723.298 L 138.721 723.298 L 138.301 724.597 L 138.301 724.597 Q 137.363 724.294 136.699 724.294 L 136.699 724.294 L 136.699 724.294 Q 135.781 724.294 135.342 724.904 L 135.342 724.904 L 135.342 724.904 Q 134.902 725.515 134.902 726.862 L 134.902 726.862 L 134.902 727.556 L 137.627 727.556 L 137.627 727.556 Z  M 144.463 727.36 L 144.463 727.36 L 144.463 727.36 Q 145.176 727.36 145.742 727.478 L 145.742 727.478 L 145.518 728.981 L 145.518 728.981 Q 144.854 728.835 144.346 728.835 L 144.346 728.835 L 144.346 728.835 Q 143.047 728.835 142.124 729.89 L 142.124 729.89 L 142.124 729.89 Q 141.201 730.944 141.201 732.517 L 141.201 732.517 L 141.201 738.259 L 139.58 738.259 L 139.58 727.556 L 140.918 727.556 L 141.104 729.538 L 141.182 729.538 L 141.182 729.538 Q 141.777 728.493 142.617 727.927 L 142.617 727.927 L 142.617 727.927 Q 143.457 727.36 144.463 727.36 Z  M 152.266 738.454 L 152.266 738.454 L 152.266 738.454 Q 149.893 738.454 148.521 737.009 L 148.521 737.009 L 148.521 737.009 Q 147.148 735.563 147.148 732.995 L 147.148 732.995 L 147.148 732.995 Q 147.148 730.407 148.423 728.884 L 148.423 728.884 L 148.423 728.884 Q 149.697 727.36 151.846 727.36 L 151.846 727.36 L 151.846 727.36 Q 153.857 727.36 155.029 728.684 L 155.029 728.684 L 155.029 728.684 Q 156.201 730.007 156.201 732.175 L 156.201 732.175 L 156.201 733.2 L 148.828 733.2 L 148.828 733.2 Q 148.877 735.085 149.78 736.062 L 149.78 736.062 L 149.78 736.062 Q 150.684 737.038 152.324 737.038 L 152.324 737.038 L 152.324 737.038 Q 154.053 737.038 155.742 736.315 L 155.742 736.315 L 155.742 737.761 L 155.742 737.761 Q 154.883 738.132 154.116 738.293 L 154.116 738.293 L 154.116 738.293 Q 153.35 738.454 152.266 738.454 Z  M 151.826 728.718 L 151.826 728.718 L 151.826 728.718 Q 150.537 728.718 149.771 729.558 L 149.771 729.558 L 149.771 729.558 Q 149.004 730.397 148.867 731.882 L 148.867 731.882 L 154.463 731.882 L 154.463 731.882 Q 154.463 730.349 153.779 729.533 L 153.779 729.533 L 153.779 729.533 Q 153.096 728.718 151.826 728.718 Z  M 165.869 735.339 L 165.869 735.339 L 165.869 735.339 Q 165.869 736.833 164.756 737.644 L 164.756 737.644 L 164.756 737.644 Q 163.643 738.454 161.631 738.454 L 161.631 738.454 L 161.631 738.454 Q 159.502 738.454 158.311 737.78 L 158.311 737.78 L 158.311 736.276 L 158.311 736.276 Q 159.082 736.667 159.966 736.892 L 159.966 736.892 L 159.966 736.892 Q 160.85 737.116 161.67 737.116 L 161.67 737.116 L 161.67 737.116 Q 162.939 737.116 163.623 736.711 L 163.623 736.711 L 163.623 736.711 Q 164.307 736.306 164.307 735.476 L 164.307 735.476 L 164.307 735.476 Q 164.307 734.851 163.765 734.406 L 163.765 734.406 L 163.765 734.406 Q 163.223 733.962 161.65 733.356 L 161.65 733.356 L 161.65 733.356 Q 160.156 732.8 159.526 732.385 L 159.526 732.385 L 159.526 732.385 Q 158.896 731.97 158.589 731.442 L 158.589 731.442 L 158.589 731.442 Q 158.281 730.915 158.281 730.183 L 158.281 730.183 L 158.281 730.183 Q 158.281 728.874 159.346 728.117 L 159.346 728.117 L 159.346 728.117 Q 160.41 727.36 162.266 727.36 L 162.266 727.36 L 162.266 727.36 Q 163.994 727.36 165.645 728.063 L 165.645 728.063 L 165.068 729.382 L 165.068 729.382 Q 163.457 728.718 162.148 728.718 L 162.148 728.718 L 162.148 728.718 Q 160.996 728.718 160.41 729.079 L 160.41 729.079 L 160.41 729.079 Q 159.824 729.44 159.824 730.075 L 159.824 730.075 L 159.824 730.075 Q 159.824 730.505 160.044 730.808 L 160.044 730.808 L 160.044 730.808 Q 160.264 731.11 160.752 731.384 L 160.752 731.384 L 160.752 731.384 Q 161.24 731.657 162.627 732.175 L 162.627 732.175 L 162.627 732.175 Q 164.531 732.868 165.2 733.571 L 165.2 733.571 L 165.2 733.571 Q 165.869 734.274 165.869 735.339 Z  M 177.451 738.259 L 175.83 738.259 L 175.83 731.335 L 175.83 731.335 Q 175.83 730.026 175.234 729.382 L 175.234 729.382 L 175.234 729.382 Q 174.639 728.737 173.369 728.737 L 173.369 728.737 L 173.369 728.737 Q 171.68 728.737 170.903 729.655 L 170.903 729.655 L 170.903 729.655 Q 170.127 730.573 170.127 732.663 L 170.127 732.663 L 170.127 738.259 L 168.506 738.259 L 168.506 723.063 L 170.127 723.063 L 170.127 727.663 L 170.127 727.663 Q 170.127 728.493 170.049 729.04 L 170.049 729.04 L 170.146 729.04 L 170.146 729.04 Q 170.625 728.269 171.509 727.824 L 171.509 727.824 L 171.509 727.824 Q 172.393 727.38 173.525 727.38 L 173.525 727.38 L 173.525 727.38 Q 175.488 727.38 176.47 728.313 L 176.47 728.313 L 176.47 728.313 Q 177.451 729.245 177.451 731.276 L 177.451 731.276 L 177.451 738.259 L 177.451 738.259 Z " fill="rgb(255,255,255)"/><linearGradient id="_lgradient_7" x1="0" y1="0.5" x2="1" y2="0.5"><stop offset="0%" stop-opacity="1" style="stop-color:rgb(0,255,255)"/><stop offset="98.69565217391305%" stop-opacity="1" style="stop-color:rgb(255,0,255)"/></linearGradient><path d=" M 158.375 648.75 L 161.703 648.75 L 161.703 653.188 C 161.703 655.639 163.689 657.625 166.141 657.625 L 177.234 657.625 C 179.686 657.625 181.672 655.639 181.672 653.188 L 181.672 648.75 L 185 648.75 C 189.901 648.75 193.875 644.776 193.875 639.875 L 193.875 577.75 C 193.875 572.849 189.901 568.875 185 568.875 L 185 564.438 C 185 561.986 183.014 560 180.563 560 L 162.813 560 C 160.361 560 158.375 561.986 158.375 564.438 L 158.375 568.875 C 153.474 568.875 149.5 572.849 149.5 577.75 L 149.5 639.875 C 149.5 644.776 153.474 648.75 158.375 648.75 Z  M 242.688 684.25 L 242.33 684.25 C 250.797 674.818 256 662.395 256 648.75 C 256 619.385 232.115 595.5 202.75 595.5 L 202.75 613.25 C 222.325 613.25 238.25 629.175 238.25 648.75 C 238.25 668.325 222.325 684.25 202.75 684.25 L 127.313 684.25 C 119.96 684.25 114 690.21 114 697.563 C 114 700.014 115.986 702 118.438 702 L 251.563 702 C 254.014 702 256 700.014 256 697.563 C 256 690.21 250.04 684.25 242.688 684.25 Z  M 142.844 675.375 L 200.531 675.375 C 201.757 675.375 202.75 674.382 202.75 673.156 L 202.75 668.719 C 202.75 667.493 201.757 666.5 200.531 666.5 L 142.844 666.5 C 141.618 666.5 140.625 667.493 140.625 668.719 L 140.625 673.156 C 140.625 674.382 141.618 675.375 142.844 675.375 Z " fill="rgb(0,0,0)" vector-effect="non-scaling-stroke" stroke-width="2" stroke="url(#_lgradient_7)" stroke-linejoin="miter" stroke-linecap="butt" stroke-miterlimit="4"/></g></g></svg>