<?xml version="1.0" encoding="UTF-8" standalone="no"?><!-- Generator: Gravit.io --><svg xmlns="http://www.w3.org/2000/svg" xmlns:xlink="http://www.w3.org/1999/xlink" style="isolation:isolate" viewBox="333.286 227.625 29.714 34.115" width="29.714pt" height="34.115pt"><linearGradient id="_lgradient_7" x1="0" y1="0.5" x2="1" y2="0.5" gradientTransform="matrix(29.714,0,0,34.115,333.286,227.625)" gradientUnits="userSpaceOnUse"><stop offset="0%" stop-opacity="1" style="stop-color:rgb(5,195,176)"/><stop offset="97.82608695652173%" stop-opacity="1" style="stop-color:rgb(0,255,170)"/></linearGradient><path d=" M 361 259.625 L 340.5 259.625 L 340.5 259.625 L 340.5 261.393 C 340.5 261.703 340.282 261.83 340.013 261.674 L 336.75 259.791 L 333.487 257.907 C 333.218 257.752 333.218 257.499 333.487 257.344 L 336.75 255.46 L 340.013 253.577 C 340.282 253.421 340.5 253.548 340.5 253.858 L 340.5 255.625 L 359 255.625 L 359 242.576 C 359 240.948 360.322 239.625 361.951 239.625 L 363 239.625 L 363 257.625 L 363 257.625 C 363 258.729 362.104 259.625 361 259.625 L 361 259.625 L 361 259.625 Z  M 355.786 233.741 L 337.286 233.741 L 337.286 246.722 C 337.286 248.388 335.933 249.741 334.268 249.741 L 333.286 249.741 L 333.286 231.741 C 333.286 230.637 334.182 229.741 335.286 229.741 L 335.286 229.741 L 355.786 229.741 L 355.786 227.973 C 355.786 227.663 356.004 227.537 356.273 227.692 L 359.536 229.576 L 362.798 231.459 C 363.067 231.615 363.067 231.867 362.798 232.022 L 359.536 233.906 L 356.273 235.789 C 356.004 235.945 355.786 235.819 355.786 235.508 L 355.786 233.741 L 355.786 233.741 L 355.786 233.741 Z " fill-rule="evenodd" fill="url(#_lgradient_7)"/></svg>