<?xml version="1.0" encoding="UTF-8" standalone="no"?><!-- Generator: Gravit.io --><svg xmlns="http://www.w3.org/2000/svg" xmlns:xlink="http://www.w3.org/1999/xlink" style="isolation:isolate" viewBox="0 -1 1918.314 1281" width="1918.314pt" height="1281pt"><g><rect x="0" y="-1" width="1918.314" height="1281" transform="matrix(1,0,0,1,0,0)" fill="rgb(0,0,0)"/><g><linearGradient id="_lgradient_24" x1="0" y1="0.5" x2="1" y2="0.5" gradientTransform="matrix(136.228,0,0,121.092,162.812,243.525)" gradientUnits="userSpaceOnUse"><stop offset="0%" stop-opacity="1" style="stop-color:rgb(0,150,136)"/><stop offset="98.69565217391305%" stop-opacity="1" style="stop-color:rgb(74,134,232)"/></linearGradient><path d=" M 299.041 300.287 C 299.041 294.698 295.978 289.871 291.472 287.251 L 291.472 251.096 C 291.472 249.026 289.822 243.525 283.904 243.525 C 282.22 243.525 280.548 244.088 279.179 245.186 L 259.069 261.275 C 248.967 269.35 236.286 273.798 223.358 273.798 L 177.949 273.798 C 169.588 273.798 162.812 280.574 162.812 288.935 L 162.812 311.639 C 162.812 320 169.588 326.776 177.949 326.776 L 185.919 326.776 C 185.59 329.255 185.404 331.776 185.404 334.344 C 185.404 343.75 187.594 352.638 191.449 360.582 C 192.676 363.111 195.356 364.617 198.166 364.617 L 215.733 364.617 C 221.894 364.617 225.593 357.56 221.859 352.659 C 217.98 347.57 215.674 341.222 215.674 334.344 C 215.674 331.717 216.057 329.191 216.717 326.776 L 223.358 326.776 C 236.286 326.776 248.967 331.225 259.066 339.299 L 279.176 355.389 C 280.518 356.462 282.184 357.047 283.902 357.049 C 289.796 357.049 291.47 351.661 291.47 349.481 L 291.47 313.326 C 295.978 310.703 299.041 305.876 299.041 300.287 Z  M 276.336 333.734 L 268.519 327.481 C 255.748 317.264 239.706 311.639 223.358 311.639 L 223.358 288.935 C 239.706 288.935 255.748 283.311 268.519 273.093 L 276.336 266.84 L 276.336 333.734 Z " fill="url(#_lgradient_24)"/><linearGradient id="_lgradient_25" x1="0" y1="0.5" x2="1" y2="0.5" gradientTransform="matrix(235.993,0,0,235.993,1317.898,506.655)" gradientUnits="userSpaceOnUse"><stop offset="0%" stop-opacity="1" style="stop-color:rgb(153,0,255)"/><stop offset="98.26086956521739%" stop-opacity="1" style="stop-color:rgb(255,0,255)"/></linearGradient><path d=" M 1435.894 506.655 C 1370.711 506.655 1317.898 559.468 1317.898 624.652 C 1317.898 689.835 1370.711 742.648 1435.894 742.648 C 1501.078 742.648 1553.891 689.835 1553.891 624.652 C 1553.891 559.468 1501.078 506.655 1435.894 506.655 Z  M 1359.768 624.652 L 1344.542 624.652 C 1344.542 574.265 1385.508 533.3 1435.894 533.3 L 1435.894 548.525 C 1393.929 548.525 1359.768 582.687 1359.768 624.652 Z  M 1435.894 670.328 C 1410.677 670.328 1390.218 649.869 1390.218 624.652 C 1390.218 599.435 1410.677 578.976 1435.894 578.976 C 1461.111 578.976 1481.57 599.435 1481.57 624.652 C 1481.57 649.869 1461.111 670.328 1435.894 670.328 Z  M 1435.894 609.426 C 1427.473 609.426 1420.669 616.23 1420.669 624.652 C 1420.669 633.073 1427.473 639.877 1435.894 639.877 C 1444.316 639.877 1451.12 633.073 1451.12 624.652 C 1451.12 616.23 1444.316 609.426 1435.894 609.426 Z " fill="url(#_lgradient_25)"/><path d=" M 1792.129 488.105 C 1793.746 483.883 1794.654 479.266 1794.654 474.453 C 1794.654 453.54 1777.687 436.574 1756.775 436.574 C 1749.002 436.574 1741.742 438.941 1735.744 442.966 C 1724.815 424.026 1704.416 411.321 1681.018 411.321 C 1646.138 411.321 1617.886 439.572 1617.886 474.453 C 1617.886 475.518 1617.926 476.583 1617.965 477.649 C 1595.869 485.422 1580.008 506.492 1580.008 531.271 C 1580.008 562.639 1605.457 588.089 1636.826 588.089 L 1782.028 588.089 C 1809.924 588.089 1832.533 565.48 1832.533 537.584 C 1832.533 513.16 1815.172 492.761 1792.129 488.105 Z " fill="rgb(74,134,232)"/><path d=" M 1232.353 912.426 C 1240.06 925.785 1230.386 942.485 1214.991 942.485 L 1014.604 942.485 C 999.18 942.485 989.55 925.76 997.243 912.426 L 1097.438 738.704 C 1105.149 725.338 1124.463 725.362 1132.16 738.704 L 1232.353 912.426 L 1232.353 912.426 Z  M 1114.799 876.509 C 1104.191 876.509 1095.591 885.109 1095.591 895.717 C 1095.591 906.326 1104.191 914.926 1114.799 914.926 C 1125.408 914.926 1134.007 906.326 1134.007 895.717 C 1134.007 885.109 1125.408 876.509 1114.799 876.509 Z  M 1096.562 807.465 L 1099.66 864.255 C 1099.805 866.912 1102.002 868.993 1104.663 868.993 L 1124.935 868.993 C 1127.596 868.993 1129.793 866.912 1129.938 864.255 L 1133.036 807.465 C 1133.192 804.595 1130.907 802.181 1128.032 802.181 L 1101.565 802.181 C 1098.691 802.181 1096.406 804.595 1096.562 807.465 L 1096.562 807.465 Z " fill="rgb(255,0,144)"/><path d=" M 508.071 219.276 C 461.228 219.276 423.276 257.229 423.276 304.071 C 423.276 350.914 461.228 388.866 508.071 388.866 C 554.913 388.866 592.866 350.914 592.866 304.071 C 592.866 257.229 554.913 219.276 508.071 219.276 Z  M 475.247 289.916 L 465.434 299.729 C 460.374 304.789 452.51 297.165 457.707 292.002 L 467.52 282.189 L 457.707 272.376 C 452.578 267.247 460.339 259.52 465.434 264.648 L 475.247 274.461 L 485.06 264.648 C 490.189 259.52 497.916 267.281 492.787 272.376 L 482.974 282.189 L 492.787 292.002 C 497.984 297.199 490.086 304.789 485.06 299.729 L 475.247 289.916 Z  M 508.071 358.778 C 496.001 358.778 486.188 348.965 486.188 336.895 C 486.188 324.825 496.001 315.012 508.071 315.012 C 520.14 315.012 529.953 324.825 529.953 336.895 C 529.953 348.965 520.14 358.778 508.071 358.778 Z  M 558.435 292.002 C 563.632 297.199 555.734 304.789 550.708 299.729 L 540.895 289.916 L 531.082 299.729 C 526.021 304.789 518.157 297.165 523.354 292.002 L 533.167 282.189 L 523.354 272.376 C 518.226 267.247 525.987 259.52 531.082 264.648 L 540.895 274.461 L 550.708 264.648 C 555.836 259.52 563.564 267.281 558.435 272.376 L 548.622 282.189 L 558.435 292.002 Z " fill="rgb(255,200,0)"/><path d=" M 931.551 23.295 C 909.741 1.51 875.18 0.708 843.586 32.267 C 816.177 59.645 822.324 53.508 813.687 62.135 C 792.606 83.191 789.143 114.726 791.497 135.765 L 853.716 73.613 C 855.898 71.434 859.434 71.434 861.613 73.613 C 863.792 75.792 863.792 79.325 861.613 81.504 L 771.124 171.899 C 767.853 175.166 767.853 180.466 771.124 183.733 C 774.394 187 779.701 187 782.972 183.733 L 806.02 160.71 C 824.256 166.188 865.951 167.045 892.084 141.553 L 857.847 141.553 L 909.302 124.419 C 926.733 107.01 921.987 111.804 925.449 108.08 L 891.356 108.08 L 937.221 92.808 C 953.065 66.845 949.184 40.91 931.551 23.295 L 931.551 23.295 Z " fill="rgb(255,0,255)" fill-opacity="0.79"/><path d=" M 1790.189 68.123 C 1790.189 56.019 1774.601 51.457 1767.735 61.492 C 1704.748 153.559 1794.257 157.704 1794.257 202.458 C 1794.257 220.579 1779.453 235.241 1761.276 235.002 C 1743.39 234.773 1729.16 219.862 1729.16 201.975 L 1729.16 158.487 C 1729.16 147.451 1715.698 142.096 1708.089 150.095 C 1694.475 164.397 1680.337 188.895 1680.337 218.733 C 1680.337 272.575 1724.14 316.379 1777.983 316.379 C 1831.826 316.379 1875.629 272.575 1875.629 218.733 C 1875.629 132.128 1790.189 120.578 1790.189 68.123 L 1790.189 68.123 Z " fill="rgb(0,255,255)"/><path d=" M 350.666 134.934 L 346.443 137.331 C 337.115 142.628 333.855 154.494 339.162 163.841 L 348.715 180.666 C 354.021 190.01 365.883 193.293 375.211 187.997 L 379.433 185.599 C 384.096 182.952 385.726 177.016 383.074 172.345 L 363.913 138.599 C 361.26 133.926 355.328 132.286 350.666 134.934 Z  M 405.553 103.769 L 401.331 106.166 C 396.668 108.814 395.037 114.748 397.69 119.421 L 416.851 153.166 C 419.503 157.837 425.436 159.48 430.099 156.832 L 434.321 154.435 C 443.649 149.138 446.908 137.269 441.602 127.925 L 432.049 111.1 C 426.744 101.756 414.882 98.473 405.553 103.769 Z  M 337.642 52.996 C 299.883 74.435 289.143 122.104 308.444 158.907 L 325.225 188.462 C 326.55 190.794 329.512 191.611 331.845 190.287 L 336.067 187.889 C 338.4 186.565 339.216 183.603 337.892 181.27 L 321.111 151.715 C 303.93 121.455 314.604 82.896 344.861 65.71 C 375.123 48.534 413.705 59.126 430.886 89.385 L 447.667 118.94 C 448.992 121.273 451.954 122.09 454.287 120.765 L 458.509 118.368 C 460.841 117.043 461.658 114.081 460.334 111.748 L 443.553 82.193 C 421.839 46.76 375.401 31.557 337.642 52.996 Z " fill="rgb(0,98,255)"/><linearGradient id="_lgradient_26" x1="0.5268851978620275" y1="1.076952569878733" x2="0.7428705786987825" y2="0.06623641725312335" gradientTransform="matrix(327.053,0,0,261.638,327.561,611.829)" gradientUnits="userSpaceOnUse"><stop offset="0%" stop-opacity="1" style="stop-color:rgb(74,134,232)"/><stop offset="100%" stop-opacity="1" style="stop-color:rgb(1,191,191)"/></linearGradient><path d=" M 482.91 808.061 L 621.908 808.061 C 630.938 808.061 638.261 800.738 638.261 791.709 C 638.261 728.49 587.01 677.24 523.792 677.24 L 523.792 644.534 L 613.732 644.534 C 618.249 644.534 621.908 640.875 621.908 636.358 L 621.908 620.005 C 621.908 615.488 618.249 611.829 613.732 611.829 L 401.147 611.829 C 396.629 611.829 392.97 615.488 392.97 620.005 L 392.97 636.358 C 392.97 640.875 396.629 644.534 401.147 644.534 L 491.086 644.534 L 491.086 677.24 L 384.794 677.24 L 362.718 647.805 C 361.174 645.745 358.747 644.534 356.177 644.534 L 335.741 644.534 C 330.421 644.534 326.517 649.532 327.81 654.693 L 343.912 709.945 L 425.676 742.651 L 469.828 801.52 C 472.916 805.639 477.763 808.062 482.91 808.061 L 482.91 808.061 Z  M 540.145 711.739 C 572.109 718.275 597.394 743.386 603.915 775.356 L 540.145 775.356 L 540.145 711.739 Z  M 652.248 846.291 L 640.928 834.946 C 637.734 831.747 632.629 831.829 629.359 834.951 C 625.736 838.411 622.286 840.7 616.767 840.7 L 450.205 840.7 C 445.687 840.7 442.028 844.369 442.028 848.892 L 442.028 865.275 C 442.028 869.798 445.687 873.467 450.205 873.467 L 616.767 873.467 C 624.371 873.467 634.806 873.227 651.747 858.382 C 655.334 855.244 655.615 849.669 652.248 846.291 L 652.248 846.291 Z " fill="url(#_lgradient_26)"/><path d=" M 1312.801 90.781 L 1277.206 85.785 L 1290.739 52.023 C 1292.897 46.638 1286.985 41.61 1282.135 44.7 L 1251.705 64.079 L 1240.674 29.398 C 1239.797 26.631 1237.428 25.249 1235.06 25.249 C 1232.691 25.249 1230.322 26.631 1229.445 29.398 L 1218.414 64.082 L 1187.985 44.703 C 1183.134 41.613 1177.225 46.641 1179.381 52.026 L 1192.913 85.788 L 1157.319 90.781 C 1151.643 91.577 1150.303 99.282 1155.367 102 L 1187.13 119.04 L 1163.03 146.072 C 1159.496 150.036 1162.473 156.081 1167.33 156.081 C 1167.754 156.081 1168.194 156.035 1168.647 155.935 L 1203.779 148.282 L 1202.449 184.702 C 1202.31 188.471 1205.319 190.921 1208.406 190.921 C 1210.072 190.921 1211.768 190.206 1213.001 188.598 L 1235.063 159.831 L 1257.125 188.598 C 1258.358 190.206 1260.05 190.921 1261.72 190.921 C 1264.807 190.921 1267.816 188.471 1267.677 184.702 L 1266.347 148.282 L 1301.478 155.935 C 1307.096 157.152 1310.93 150.369 1307.093 146.069 L 1282.992 119.037 L 1314.755 101.997 C 1319.816 99.282 1318.476 91.577 1312.801 90.781 L 1312.801 90.781 Z  M 1261.759 126.104 L 1244.968 122.447 L 1245.605 139.853 L 1235.06 126.104 L 1224.514 139.853 L 1225.148 122.447 L 1208.357 126.104 L 1219.877 113.183 L 1204.695 105.039 L 1221.705 102.65 L 1215.237 86.513 L 1229.782 95.774 L 1235.06 79.197 L 1240.331 95.774 L 1254.876 86.513 L 1248.407 102.65 L 1265.418 105.039 L 1250.236 113.183 L 1261.759 126.104 Z " fill="rgb(255,255,0)"/><linearGradient id="_lgradient_27" x1="0.2427069899050731" y1="0.6948598450595558" x2="0.9946065113354428" y2="0.4956697812208988" gradientTransform="matrix(0,-337.881,343.399,0,2.371,749.202)" gradientUnits="userSpaceOnUse"><stop offset="0%" stop-opacity="1" style="stop-color:rgb(153,0,255)"/><stop offset="97.82608695652173%" stop-opacity="1" style="stop-color:rgb(255,0,255)"/></linearGradient><path d=" M 2.371 746.109 Q 2.371 760.461 213.353 708.219 C 218.182 706.542 218.182 699.701 213.353 698.092 L 130.127 673.681 L 255.737 644.039 C 261.303 642.764 261.303 634.851 255.737 633.577 L 123.689 602.392 L 213.152 579.524 C 218.249 577.981 218.249 570.805 213.152 569.263 L 97.467 538.548 L 341.444 493.816 C 347.212 492.676 347.212 484.427 341.444 483.287 L 2.371 411.321 L 2.371 746.109 Z " fill="url(#_lgradient_27)"/><linearGradient id="_lgradient_28" x1="0" y1="0.5" x2="1" y2="0.5" gradientTransform="matrix(160.569,0,0,151.124,512.581,7.659)" gradientUnits="userSpaceOnUse"><stop offset="0%" stop-opacity="1" style="stop-color:rgb(255,255,0)"/><stop offset="99.56521739130434%" stop-opacity="1" style="stop-color:rgb(255,0,255)"/></linearGradient><path d=" M 654.257 111.556 L 671.636 94.18 C 672.607 89.221 673.15 84.109 673.15 78.873 C 673.15 77.158 672.949 75.475 672.84 73.775 L 658.982 73.775 L 671.158 61.603 C 666.878 42.479 655.682 25.283 639.307 13.707 C 638.489 13.128 637.544 12.824 636.576 12.824 C 634.991 12.824 633.504 13.624 632.595 14.961 C 631.694 16.286 631.52 17.91 632.119 19.415 C 634.053 24.273 635.03 29.371 635.03 34.56 C 635.03 47.878 628.822 60.112 618.002 68.129 C 616.815 69.008 616.095 70.343 616.024 71.789 C 615.953 73.241 616.544 74.64 617.645 75.635 C 627.364 84.416 631.621 97.332 629.029 110.19 C 626.154 124.461 614.613 135.898 600.307 138.673 L 599.569 119.387 L 607.588 124.839 C 608.468 125.447 609.77 125.337 610.546 124.603 C 611.347 123.84 611.512 122.623 610.941 121.675 L 605.006 111.719 L 617.423 109.145 C 618.515 108.923 619.306 107.949 619.306 106.834 C 619.306 105.721 618.512 104.75 617.423 104.523 L 605.006 101.946 L 610.947 91.978 C 611.514 91.025 611.343 89.82 610.54 89.053 C 609.743 88.3 608.483 88.2 607.588 88.817 L 598.618 94.918 L 595.215 9.931 C 595.173 8.66 594.126 7.652 592.854 7.659 C 591.576 7.659 590.54 8.656 590.492 9.923 L 587.092 94.921 L 578.122 88.823 C 577.195 88.197 575.976 88.283 575.171 89.053 C 574.368 89.817 574.196 91.022 574.769 91.987 L 580.705 101.943 L 568.287 104.52 C 567.195 104.741 566.404 105.715 566.404 106.831 C 566.404 107.946 567.192 108.92 568.287 109.142 L 580.705 111.716 L 574.763 121.683 C 574.196 122.637 574.368 123.847 575.173 124.617 C 575.938 125.34 577.248 125.429 578.125 124.839 L 586.142 119.384 L 585.404 138.646 C 568.597 135.211 555.92 120.379 555.92 102.66 C 555.92 92.306 560.235 82.707 568.072 75.629 C 569.17 74.637 569.76 73.235 569.689 71.789 C 569.619 70.343 568.898 69.011 567.715 68.135 C 556.891 60.118 550.681 47.881 550.681 34.563 C 550.681 29.38 551.658 24.288 553.585 19.433 C 554.181 17.93 554.007 16.307 553.107 14.979 C 552.198 13.639 550.707 12.839 549.119 12.839 C 548.145 12.839 547.201 13.146 546.383 13.724 C 529.892 25.389 518.756 42.464 514.514 61.561 L 526.728 73.775 L 512.794 73.775 C 512.608 76.703 512.507 79.652 512.646 82.627 C 512.829 86.591 513.396 90.458 514.154 94.26 L 531.451 111.556 L 519.671 111.556 C 531.846 138.189 558.376 157.289 589.064 158.697 C 590.333 158.756 591.599 158.782 592.857 158.782 C 625.425 158.782 653.469 139.352 666.051 111.556 L 654.257 111.556 L 654.257 111.556 Z " fill="url(#_lgradient_28)"/><path d=" M 150.554 46.823 L 154.193 39.544 L 161.473 35.904 L 154.193 32.264 L 150.554 24.985 L 146.914 32.264 L 139.634 35.904 L 146.914 39.544 L 150.554 46.823 Z  M 117.795 61.383 L 123.86 49.251 L 135.994 43.184 L 123.86 37.117 L 117.795 24.985 L 111.73 37.117 L 99.596 43.184 L 111.73 49.251 L 117.795 61.383 Z  M 197.871 90.501 L 191.807 102.633 L 179.672 108.7 L 191.807 114.768 L 197.871 126.9 L 203.936 114.768 L 216.07 108.7 L 203.936 102.633 L 197.871 90.501 Z  M 213.937 46.421 L 194.634 27.118 C 193.215 25.694 191.352 24.985 189.488 24.985 C 187.625 24.985 185.762 25.694 184.34 27.118 L 101.73 109.729 C 98.886 112.572 98.886 117.181 101.73 120.023 L 121.032 139.325 C 122.454 140.747 124.317 141.457 126.178 141.457 C 128.041 141.457 129.904 140.747 131.326 139.325 L 213.937 56.712 C 216.78 53.873 216.78 49.262 213.937 46.421 L 213.937 46.421 Z  M 181.367 71.269 L 169.786 59.688 L 189.486 39.987 L 201.068 51.569 L 181.367 71.269 L 181.367 71.269 Z " fill="rgb(255,255,0)"/><path d=" M 1761.571 722.222 C 1566.906 722.222 1604.304 891.114 1691.876 891.114 C 1709.425 891.114 1725.949 882.014 1736.483 866.545 L 1747.8 849.924 C 1754.687 839.813 1768.458 839.813 1775.346 849.924 L 1786.662 866.545 C 1797.192 882.014 1813.716 891.114 1831.265 891.114 C 1914.769 891.114 1959.09 722.222 1761.571 722.222 L 1761.571 722.222 Z  M 1701.46 829.697 C 1683.401 829.697 1671.658 818.411 1666.239 811.642 C 1663.939 808.77 1663.939 804.566 1666.239 801.689 C 1671.658 794.916 1683.397 783.635 1701.46 783.635 C 1719.524 783.635 1731.262 794.92 1736.681 801.689 C 1738.981 804.561 1738.981 808.766 1736.681 811.642 C 1731.262 818.416 1719.519 829.697 1701.46 829.697 Z  M 1821.092 829.697 C 1803.033 829.697 1791.289 818.411 1785.871 811.642 C 1783.57 808.77 1783.57 804.566 1785.871 801.689 C 1791.289 794.916 1803.028 783.635 1821.092 783.635 C 1839.155 783.635 1850.894 794.92 1856.313 801.689 C 1858.613 804.561 1858.613 808.766 1856.313 811.642 C 1850.894 818.416 1839.151 829.697 1821.092 829.697 L 1821.092 829.697 Z " fill="rgb(255,255,255)"/><path d=" M 1513.948 122.496 L 1511.505 117.243 C 1510.156 114.341 1506.712 113.083 1503.81 114.433 L 1488.051 121.762 C 1463.494 133.182 1433.942 121.174 1424.735 94.988 C 1416.712 72.165 1428.901 47.046 1450.835 36.845 L 1464.723 30.387 C 1467.625 29.037 1468.882 25.593 1467.533 22.691 L 1465.09 17.438 C 1463.74 14.536 1460.296 13.278 1457.394 14.628 L 1444.209 20.76 C 1414.78 34.446 1398.312 67.649 1407.767 98.403 L 1396.556 103.617 L 1388.005 85.232 C 1386.656 82.33 1383.212 81.073 1380.309 82.422 L 1375.057 84.865 C 1372.154 86.215 1370.897 89.659 1372.247 92.561 L 1396.676 145.09 C 1398.026 147.992 1401.469 149.25 1404.372 147.9 L 1409.625 145.457 C 1412.527 144.107 1413.784 140.663 1412.435 137.761 L 1403.884 119.376 L 1414.971 114.22 C 1431.918 140.563 1466.193 151.094 1495.38 137.52 L 1511.138 130.192 C 1514.041 128.842 1515.298 125.398 1513.948 122.496 Z  M 1436.99 94.396 C 1445.085 111.803 1465.758 119.351 1483.165 111.256 L 1470.137 83.242 C 1469.237 81.308 1469.683 79.192 1471.134 78.517 L 1476.387 76.074 C 1477.838 75.399 1479.743 76.422 1480.642 78.356 L 1493.671 106.37 L 1504.177 101.484 L 1491.148 73.47 C 1490.249 71.536 1490.694 69.42 1492.145 68.745 L 1497.398 66.303 C 1498.85 65.628 1500.755 66.65 1501.654 68.584 L 1514.682 96.598 L 1525.188 91.713 L 1512.16 63.698 C 1511.26 61.765 1511.706 59.649 1513.157 58.974 L 1518.41 56.531 C 1519.861 55.856 1521.766 56.879 1522.666 58.812 L 1535.694 86.827 C 1553.101 78.732 1560.649 58.059 1552.554 40.652 C 1544.459 23.245 1523.786 15.697 1506.379 23.792 L 1453.85 48.221 C 1436.443 56.317 1428.895 76.989 1436.99 94.396 Z " fill="rgb(0,255,132)"/><linearGradient id="_lgradient_29" x1="-0.021299298545208956" y1="0.35688160241790023" x2="1.1613841320749776" y2="0.8735829096409964" gradientTransform="matrix(250.894,0,0,250.897,1310.447,201.025)" gradientUnits="userSpaceOnUse"><stop offset="0%" stop-opacity="1" style="stop-color:rgb(255,153,0)"/><stop offset="98.69565217391305%" stop-opacity="1" style="stop-color:rgb(255,0,255)"/></linearGradient><path d=" M 1559.045 242.526 L 1537.821 221.298 C 1534.881 218.358 1530.892 216.706 1526.732 216.706 L 1451.575 216.706 L 1451.575 208.866 C 1451.575 204.534 1448.067 201.025 1443.735 201.025 L 1428.054 201.025 C 1423.722 201.025 1420.213 204.534 1420.213 208.866 L 1420.213 216.706 L 1337.888 216.706 C 1331.395 216.706 1326.127 221.974 1326.127 228.467 L 1326.127 267.67 C 1326.127 274.163 1331.395 279.43 1337.888 279.43 L 1526.732 279.43 C 1530.892 279.43 1534.876 277.779 1537.821 274.839 L 1559.045 253.615 C 1562.107 250.548 1562.107 245.589 1559.045 242.526 Z  M 1420.213 444.081 C 1420.213 448.413 1423.722 451.922 1428.054 451.922 L 1443.735 451.922 C 1448.067 451.922 1451.575 448.413 1451.575 444.081 L 1451.575 389.198 L 1420.213 389.198 L 1420.213 444.081 Z  M 1533.901 310.792 L 1451.575 310.792 L 1451.575 295.111 L 1420.213 295.111 L 1420.213 310.792 L 1345.057 310.792 C 1340.896 310.792 1336.912 312.444 1333.967 315.384 L 1312.744 336.612 C 1309.681 339.675 1309.681 344.639 1312.744 347.702 L 1333.967 368.925 C 1336.908 371.865 1340.896 373.517 1345.057 373.517 L 1533.901 373.517 C 1540.394 373.517 1545.662 368.249 1545.662 361.756 L 1545.662 322.553 C 1545.662 316.06 1540.394 310.792 1533.901 310.792 Z " fill="url(#_lgradient_29)"/></g><g><g><circle vector-effect="non-scaling-stroke" cx="975.282056742316" cy="314.68500405052885" r="163.48890861530026" fill="rgb(0,0,0)" stroke-width="5" stroke="rgb(0,255,255)" stroke-linejoin="miter" stroke-linecap="square" stroke-miterlimit="3"/><g><linearGradient id="_lgradient_30" x1="0" y1="0.5" x2="1" y2="0.5" gradientTransform="matrix(154.171,0,0,154.174,876.713,241.042)" gradientUnits="userSpaceOnUse"><stop offset="0%" stop-opacity="1" style="stop-color:rgb(0,255,255)"/><stop offset="97.82608695652173%" stop-opacity="1" style="stop-color:rgb(74,134,232)"/></linearGradient><path d=" M 1030.882 250.683 C 1030.882 244.146 1024.528 239.539 1018.355 241.496 L 922.001 269.952 C 917.996 271.216 915.256 274.92 915.256 279.136 L 915.256 357.853 C 912.23 357.137 909.017 356.673 905.621 356.673 C 889.655 356.673 876.713 365.3 876.713 375.944 C 876.713 386.589 889.655 395.216 905.621 395.216 C 921.586 395.216 934.528 386.589 934.528 375.944 L 934.528 305.577 L 1011.613 282.987 L 1011.613 338.582 C 1008.587 337.865 1005.374 337.402 1001.978 337.402 C 986.013 337.402 973.071 346.029 973.071 356.673 C 973.071 367.317 986.013 375.944 1001.978 375.944 C 1017.943 375.944 1030.885 367.317 1030.885 356.673 L 1030.882 250.683 Z " fill="url(#_lgradient_30)"/><path d=" M 869.564 265.458 L 887.309 264.018 L 865.34 305.577 L 902.437 253.761 L 884.256 256.023 L 897.761 212.117 L 869.564 265.458 Z " fill="rgb(0,255,255)"/><path d=" M 1081 341.875 L 1063.255 343.315 L 1085.224 301.756 L 1048.128 353.572 L 1066.308 351.309 L 1052.803 395.216 L 1081 341.875 Z " fill="rgb(0,255,255)"/></g></g><path d=" M 1070.291 636.162 L 1070.291 575.27 L 1089.241 575.27 L 1089.241 575.27 Q 1102.194 575.27 1108.046 578.956 L 1108.046 578.956 L 1108.046 578.956 Q 1113.898 582.642 1113.898 590.681 L 1113.898 590.681 L 1113.898 590.681 Q 1113.898 596.137 1111.336 599.636 L 1111.336 599.636 L 1111.336 599.636 Q 1108.775 603.134 1104.527 603.842 L 1104.527 603.842 L 1104.527 604.259 L 1104.527 604.259 Q 1110.316 605.55 1112.877 609.09 L 1112.877 609.09 L 1112.877 609.09 Q 1115.439 612.63 1115.439 618.503 L 1115.439 618.503 L 1115.439 618.503 Q 1115.439 626.833 1109.42 631.498 L 1109.42 631.498 L 1109.42 631.498 Q 1103.402 636.162 1093.073 636.162 L 1093.073 636.162 L 1070.291 636.162 L 1070.291 636.162 Z  M 1083.202 585.849 L 1083.202 599.386 L 1090.699 599.386 L 1090.699 599.386 Q 1095.947 599.386 1098.3 597.761 L 1098.3 597.761 L 1098.3 597.761 Q 1100.653 596.137 1100.653 592.388 L 1100.653 592.388 L 1100.653 592.388 Q 1100.653 588.89 1098.092 587.37 L 1098.092 587.37 L 1098.092 587.37 Q 1095.53 585.849 1089.991 585.849 L 1089.991 585.849 L 1083.202 585.849 L 1083.202 585.849 Z  M 1091.199 609.631 L 1083.202 609.631 L 1083.202 625.5 L 1091.615 625.5 L 1091.615 625.5 Q 1096.946 625.5 1099.487 623.459 L 1099.487 623.459 L 1099.487 623.459 Q 1102.028 621.418 1102.028 617.212 L 1102.028 617.212 L 1102.028 617.212 Q 1102.028 609.631 1091.199 609.631 L 1091.199 609.631 L 1091.199 609.631 Z  M 1145.885 597.761 L 1145.885 597.761 L 1145.885 597.761 Q 1141.845 597.761 1139.554 600.323 L 1139.554 600.323 L 1139.554 600.323 Q 1137.263 602.884 1136.93 607.591 L 1136.93 607.591 L 1154.756 607.591 L 1154.756 607.591 Q 1154.673 602.884 1152.299 600.323 L 1152.299 600.323 L 1152.299 600.323 Q 1149.925 597.761 1145.885 597.761 Z  M 1147.676 636.995 L 1147.676 636.995 L 1147.676 636.995 Q 1136.43 636.995 1130.1 630.789 L 1130.1 630.789 L 1130.1 630.789 Q 1123.769 624.584 1123.769 613.213 L 1123.769 613.213 L 1123.769 613.213 Q 1123.769 601.51 1129.621 595.117 L 1129.621 595.117 L 1129.621 595.117 Q 1135.472 588.723 1145.801 588.723 L 1145.801 588.723 L 1145.801 588.723 Q 1155.672 588.723 1161.17 594.346 L 1161.17 594.346 L 1161.17 594.346 Q 1166.668 599.969 1166.668 609.881 L 1166.668 609.881 L 1166.668 616.045 L 1136.639 616.045 L 1136.639 616.045 Q 1136.847 621.46 1139.846 624.5 L 1139.846 624.5 L 1139.846 624.5 Q 1142.844 627.541 1148.259 627.541 L 1148.259 627.541 L 1148.259 627.541 Q 1152.465 627.541 1156.214 626.666 L 1156.214 626.666 L 1156.214 626.666 Q 1159.962 625.792 1164.044 623.876 L 1164.044 623.876 L 1164.044 633.705 L 1164.044 633.705 Q 1160.712 635.371 1156.922 636.183 L 1156.922 636.183 L 1156.922 636.183 Q 1153.132 636.995 1147.676 636.995 Z  M 1215.44 636.162 L 1206.568 636.162 L 1204.111 629.832 L 1203.778 629.832 L 1203.778 629.832 Q 1200.571 633.872 1197.176 635.433 L 1197.176 635.433 L 1197.176 635.433 Q 1193.782 636.995 1188.326 636.995 L 1188.326 636.995 L 1188.326 636.995 Q 1181.62 636.995 1177.768 633.164 L 1177.768 633.164 L 1177.768 633.164 Q 1173.915 629.332 1173.915 622.251 L 1173.915 622.251 L 1173.915 622.251 Q 1173.915 614.838 1179.1 611.318 L 1179.1 611.318 L 1179.1 611.318 Q 1184.286 607.799 1194.74 607.424 L 1194.74 607.424 L 1202.82 607.174 L 1202.82 605.133 L 1202.82 605.133 Q 1202.82 598.053 1195.573 598.053 L 1195.573 598.053 L 1195.573 598.053 Q 1189.992 598.053 1182.453 601.426 L 1182.453 601.426 L 1178.247 592.847 L 1178.247 592.847 Q 1186.285 588.64 1196.073 588.64 L 1196.073 588.64 L 1196.073 588.64 Q 1205.444 588.64 1210.442 592.722 L 1210.442 592.722 L 1210.442 592.722 Q 1215.44 596.803 1215.44 605.133 L 1215.44 605.133 L 1215.44 636.162 L 1215.44 636.162 Z  M 1202.82 618.42 L 1202.82 614.588 L 1197.905 614.754 L 1197.905 614.754 Q 1192.366 614.921 1189.659 616.754 L 1189.659 616.754 L 1189.659 616.754 Q 1186.951 618.586 1186.951 622.335 L 1186.951 622.335 L 1186.951 622.335 Q 1186.951 627.707 1193.115 627.707 L 1193.115 627.707 L 1193.115 627.707 Q 1197.53 627.707 1200.175 625.167 L 1200.175 625.167 L 1200.175 625.167 Q 1202.82 622.626 1202.82 618.42 L 1202.82 618.42 L 1202.82 618.42 Z  M 1248.135 626.874 L 1248.135 626.874 L 1248.135 626.874 Q 1251.467 626.874 1256.131 625.417 L 1256.131 625.417 L 1256.131 634.871 L 1256.131 634.871 Q 1251.383 636.995 1244.47 636.995 L 1244.47 636.995 L 1244.47 636.995 Q 1236.848 636.995 1233.37 633.143 L 1233.37 633.143 L 1233.37 633.143 Q 1229.892 629.29 1229.892 621.585 L 1229.892 621.585 L 1229.892 599.136 L 1223.811 599.136 L 1223.811 593.763 L 1230.808 589.515 L 1234.474 579.685 L 1242.595 579.685 L 1242.595 589.598 L 1255.632 589.598 L 1255.632 599.136 L 1242.595 599.136 L 1242.595 621.585 L 1242.595 621.585 Q 1242.595 624.292 1244.116 625.583 L 1244.116 625.583 L 1244.116 625.583 Q 1245.636 626.874 1248.135 626.874 Z  M 915.77 586.016 L 915.77 636.162 L 902.859 636.162 L 902.859 586.016 L 886.324 586.016 L 886.324 575.27 L 932.305 575.27 L 932.305 586.016 L 915.77 586.016 L 915.77 586.016 Z  M 983.659 605.8 L 983.659 636.162 L 970.956 636.162 L 970.956 608.965 L 970.956 608.965 Q 970.956 598.886 963.459 598.886 L 963.459 598.886 L 963.459 598.886 Q 958.128 598.886 955.754 602.509 L 955.754 602.509 L 955.754 602.509 Q 953.38 606.133 953.38 614.255 L 953.38 614.255 L 953.38 636.162 L 940.677 636.162 L 940.677 571.355 L 953.38 571.355 L 953.38 584.558 L 953.38 584.558 Q 953.38 586.099 953.088 591.805 L 953.088 591.805 L 952.797 595.554 L 953.463 595.554 L 953.463 595.554 Q 957.711 588.723 966.958 588.723 L 966.958 588.723 L 966.958 588.723 Q 975.163 588.723 979.411 593.138 L 979.411 593.138 L 979.411 593.138 Q 983.659 597.553 983.659 605.8 L 983.659 605.8 L 983.659 605.8 Z  M 1016.021 597.761 L 1016.021 597.761 L 1016.021 597.761 Q 1011.981 597.761 1009.69 600.323 L 1009.69 600.323 L 1009.69 600.323 Q 1007.4 602.884 1007.066 607.591 L 1007.066 607.591 L 1024.892 607.591 L 1024.892 607.591 Q 1024.809 602.884 1022.435 600.323 L 1022.435 600.323 L 1022.435 600.323 Q 1020.061 597.761 1016.021 597.761 Z  M 1017.812 636.995 L 1017.812 636.995 L 1017.812 636.995 Q 1006.567 636.995 1000.236 630.789 L 1000.236 630.789 L 1000.236 630.789 Q 993.905 624.584 993.905 613.213 L 993.905 613.213 L 993.905 613.213 Q 993.905 601.51 999.757 595.117 L 999.757 595.117 L 999.757 595.117 Q 1005.609 588.723 1015.938 588.723 L 1015.938 588.723 L 1015.938 588.723 Q 1025.809 588.723 1031.306 594.346 L 1031.306 594.346 L 1031.306 594.346 Q 1036.804 599.969 1036.804 609.881 L 1036.804 609.881 L 1036.804 616.045 L 1006.775 616.045 L 1006.775 616.045 Q 1006.983 621.46 1009.982 624.5 L 1009.982 624.5 L 1009.982 624.5 Q 1012.981 627.541 1018.395 627.541 L 1018.395 627.541 L 1018.395 627.541 Q 1022.602 627.541 1026.35 626.666 L 1026.35 626.666 L 1026.35 626.666 Q 1030.099 625.792 1034.18 623.876 L 1034.18 623.876 L 1034.18 633.705 L 1034.18 633.705 Q 1030.848 635.371 1027.058 636.183 L 1027.058 636.183 L 1027.058 636.183 Q 1023.268 636.995 1017.812 636.995 Z  M 709.188 612.089 L 709.188 636.162 L 696.485 636.162 L 696.485 575.27 L 731.387 575.27 L 731.387 585.849 L 709.188 585.849 L 709.188 601.551 L 729.846 601.551 L 729.846 612.089 L 709.188 612.089 L 709.188 612.089 Z  M 761.583 597.761 L 761.583 597.761 L 761.583 597.761 Q 757.543 597.761 755.252 600.323 L 755.252 600.323 L 755.252 600.323 Q 752.962 602.884 752.628 607.591 L 752.628 607.591 L 770.454 607.591 L 770.454 607.591 Q 770.371 602.884 767.997 600.323 L 767.997 600.323 L 767.997 600.323 Q 765.623 597.761 761.583 597.761 Z  M 763.374 636.995 L 763.374 636.995 L 763.374 636.995 Q 752.129 636.995 745.798 630.789 L 745.798 630.789 L 745.798 630.789 Q 739.467 624.584 739.467 613.213 L 739.467 613.213 L 739.467 613.213 Q 739.467 601.51 745.319 595.117 L 745.319 595.117 L 745.319 595.117 Q 751.171 588.723 761.5 588.723 L 761.5 588.723 L 761.5 588.723 Q 771.371 588.723 776.868 594.346 L 776.868 594.346 L 776.868 594.346 Q 782.366 599.969 782.366 609.881 L 782.366 609.881 L 782.366 616.045 L 752.337 616.045 L 752.337 616.045 Q 752.545 621.46 755.544 624.5 L 755.544 624.5 L 755.544 624.5 Q 758.543 627.541 763.957 627.541 L 763.957 627.541 L 763.957 627.541 Q 768.164 627.541 771.912 626.666 L 771.912 626.666 L 771.912 626.666 Q 775.661 625.792 779.742 623.876 L 779.742 623.876 L 779.742 633.705 L 779.742 633.705 Q 776.41 635.371 772.62 636.183 L 772.62 636.183 L 772.62 636.183 Q 768.83 636.995 763.374 636.995 Z  M 811.979 597.761 L 811.979 597.761 L 811.979 597.761 Q 807.939 597.761 805.648 600.323 L 805.648 600.323 L 805.648 600.323 Q 803.358 602.884 803.025 607.591 L 803.025 607.591 L 820.851 607.591 L 820.851 607.591 Q 820.767 602.884 818.393 600.323 L 818.393 600.323 L 818.393 600.323 Q 816.019 597.761 811.979 597.761 Z  M 813.77 636.995 L 813.77 636.995 L 813.77 636.995 Q 802.525 636.995 796.194 630.789 L 796.194 630.789 L 796.194 630.789 Q 789.863 624.584 789.863 613.213 L 789.863 613.213 L 789.863 613.213 Q 789.863 601.51 795.715 595.117 L 795.715 595.117 L 795.715 595.117 Q 801.567 588.723 811.896 588.723 L 811.896 588.723 L 811.896 588.723 Q 821.767 588.723 827.265 594.346 L 827.265 594.346 L 827.265 594.346 Q 832.762 599.969 832.762 609.881 L 832.762 609.881 L 832.762 616.045 L 802.733 616.045 L 802.733 616.045 Q 802.941 621.46 805.94 624.5 L 805.94 624.5 L 805.94 624.5 Q 808.939 627.541 814.353 627.541 L 814.353 627.541 L 814.353 627.541 Q 818.56 627.541 822.308 626.666 L 822.308 626.666 L 822.308 626.666 Q 826.057 625.792 830.138 623.876 L 830.138 623.876 L 830.138 633.705 L 830.138 633.705 Q 826.806 635.371 823.016 636.183 L 823.016 636.183 L 823.016 636.183 Q 819.226 636.995 813.77 636.995 Z  M 855.795 571.355 L 855.795 636.162 L 843.092 636.162 L 843.092 571.355 L 855.795 571.355 L 855.795 571.355 Z " fill="rgb(0,234,255)"/><path d=" M 839.51 698.579 L 839.51 698.579 L 839.51 698.579 Q 839.51 703.202 836.355 705.69 L 836.355 705.69 L 836.355 705.69 Q 833.2 708.179 827.327 708.179 L 827.327 708.179 L 823.745 708.179 L 823.745 720.153 L 820.205 720.153 L 820.205 689.707 L 828.098 689.707 L 828.098 689.707 Q 839.51 689.707 839.51 698.579 Z  M 823.745 692.768 L 823.745 705.138 L 826.931 705.138 L 826.931 705.138 Q 831.638 705.138 833.741 703.618 L 833.741 703.618 L 833.741 703.618 Q 835.844 702.098 835.844 698.745 L 835.844 698.745 L 835.844 698.745 Q 835.844 695.726 833.866 694.247 L 833.866 694.247 L 833.866 694.247 Q 831.888 692.768 827.702 692.768 L 827.702 692.768 L 823.745 692.768 L 823.745 692.768 Z  M 848.818 687.75 L 848.818 720.153 L 845.361 720.153 L 845.361 687.75 L 848.818 687.75 L 848.818 687.75 Z  M 872.746 720.153 L 870.185 720.153 L 869.497 716.904 L 869.331 716.904 L 869.331 716.904 Q 867.623 719.049 865.926 719.809 L 865.926 719.809 L 865.926 719.809 Q 864.229 720.57 861.688 720.57 L 861.688 720.57 L 861.688 720.57 Q 858.294 720.57 856.367 718.82 L 856.367 718.82 L 856.367 718.82 Q 854.441 717.071 854.441 713.843 L 854.441 713.843 L 854.441 713.843 Q 854.441 706.929 865.499 706.596 L 865.499 706.596 L 869.372 706.471 L 869.372 705.055 L 869.372 705.055 Q 869.372 702.369 868.217 701.088 L 868.217 701.088 L 868.217 701.088 Q 867.061 699.807 864.52 699.807 L 864.52 699.807 L 864.52 699.807 Q 861.667 699.807 858.065 701.556 L 858.065 701.556 L 857.002 698.912 L 857.002 698.912 Q 858.689 697.995 860.699 697.475 L 860.699 697.475 L 860.699 697.475 Q 862.709 696.954 864.729 696.954 L 864.729 696.954 L 864.729 696.954 Q 868.81 696.954 870.778 698.766 L 870.778 698.766 L 870.778 698.766 Q 872.746 700.578 872.746 704.576 L 872.746 704.576 L 872.746 720.153 L 872.746 720.153 Z  M 862.375 717.717 L 862.375 717.717 L 862.375 717.717 Q 865.603 717.717 867.446 715.946 L 867.446 715.946 L 867.446 715.946 Q 869.289 714.176 869.289 710.99 L 869.289 710.99 L 869.289 708.928 L 865.832 709.074 L 865.832 709.074 Q 861.709 709.22 859.887 710.355 L 859.887 710.355 L 859.887 710.355 Q 858.065 711.49 858.065 713.885 L 858.065 713.885 L 858.065 713.885 Q 858.065 715.759 859.2 716.738 L 859.2 716.738 L 859.2 716.738 Q 860.334 717.717 862.375 717.717 Z  M 885.449 720.278 L 876.245 697.329 L 879.951 697.329 L 884.949 710.345 L 884.949 710.345 Q 886.595 714.801 886.99 716.779 L 886.99 716.779 L 887.157 716.779 L 887.157 716.779 Q 887.428 715.717 888.292 713.145 L 888.292 713.145 L 888.292 713.145 Q 889.156 710.574 893.946 697.329 L 893.946 697.329 L 897.653 697.329 L 887.844 723.318 L 887.844 723.318 Q 886.386 727.171 884.439 728.785 L 884.439 728.785 L 884.439 728.785 Q 882.492 730.399 879.66 730.399 L 879.66 730.399 L 879.66 730.399 Q 878.077 730.399 876.536 730.045 L 876.536 730.045 L 876.536 727.275 L 876.536 727.275 Q 877.682 727.525 879.098 727.525 L 879.098 727.525 L 879.098 727.525 Q 882.659 727.525 884.179 723.527 L 884.179 723.527 L 885.449 720.278 L 885.449 720.278 Z  M 911.001 720.57 L 911.001 720.57 L 911.001 720.57 Q 905.941 720.57 903.015 717.487 L 903.015 717.487 L 903.015 717.487 Q 900.089 714.405 900.089 708.928 L 900.089 708.928 L 900.089 708.928 Q 900.089 703.41 902.807 700.161 L 902.807 700.161 L 902.807 700.161 Q 905.524 696.913 910.106 696.913 L 910.106 696.913 L 910.106 696.913 Q 914.396 696.913 916.895 699.734 L 916.895 699.734 L 916.895 699.734 Q 919.394 702.556 919.394 707.179 L 919.394 707.179 L 919.394 709.366 L 903.671 709.366 L 903.671 709.366 Q 903.775 713.385 905.701 715.467 L 905.701 715.467 L 905.701 715.467 Q 907.628 717.55 911.126 717.55 L 911.126 717.55 L 911.126 717.55 Q 914.812 717.55 918.415 716.009 L 918.415 716.009 L 918.415 719.091 L 918.415 719.091 Q 916.582 719.882 914.948 720.226 L 914.948 720.226 L 914.948 720.226 Q 913.313 720.57 911.001 720.57 Z  M 910.064 699.807 L 910.064 699.807 L 910.064 699.807 Q 907.315 699.807 905.681 701.598 L 905.681 701.598 L 905.681 701.598 Q 904.046 703.389 903.754 706.554 L 903.754 706.554 L 915.687 706.554 L 915.687 706.554 Q 915.687 703.285 914.229 701.546 L 914.229 701.546 L 914.229 701.546 Q 912.771 699.807 910.064 699.807 Z  M 935.7 696.913 L 935.7 696.913 L 935.7 696.913 Q 937.22 696.913 938.428 697.162 L 938.428 697.162 L 937.949 700.369 L 937.949 700.369 Q 936.533 700.057 935.45 700.057 L 935.45 700.057 L 935.45 700.057 Q 932.68 700.057 930.712 702.306 L 930.712 702.306 L 930.712 702.306 Q 928.744 704.555 928.744 707.908 L 928.744 707.908 L 928.744 720.153 L 925.287 720.153 L 925.287 697.329 L 928.14 697.329 L 928.536 701.556 L 928.702 701.556 L 928.702 701.556 Q 929.973 699.328 931.764 698.12 L 931.764 698.12 L 931.764 698.12 Q 933.555 696.913 935.7 696.913 Z  M 709.334 720.153 L 706.481 720.153 L 696.151 693.164 L 695.985 693.164 L 695.985 693.164 Q 696.276 696.371 696.276 700.786 L 696.276 700.786 L 696.276 720.153 L 693.007 720.153 L 693.007 689.707 L 698.338 689.707 L 707.98 714.822 L 708.147 714.822 L 717.872 689.707 L 723.161 689.707 L 723.161 720.153 L 719.621 720.153 L 719.621 700.536 L 719.621 700.536 Q 719.621 697.162 719.913 693.206 L 719.913 693.206 L 719.746 693.206 L 709.334 720.153 L 709.334 720.153 Z  M 730.741 697.329 L 734.24 697.329 L 734.24 712.135 L 734.24 712.135 Q 734.24 714.926 735.51 716.3 L 735.51 716.3 L 735.51 716.3 Q 736.781 717.675 739.488 717.675 L 739.488 717.675 L 739.488 717.675 Q 743.07 717.675 744.725 715.717 L 744.725 715.717 L 744.725 715.717 Q 746.381 713.76 746.381 709.324 L 746.381 709.324 L 746.381 697.329 L 749.838 697.329 L 749.838 720.153 L 746.985 720.153 L 746.485 717.092 L 746.298 717.092 L 746.298 717.092 Q 745.236 718.779 743.351 719.674 L 743.351 719.674 L 743.351 719.674 Q 741.466 720.57 739.051 720.57 L 739.051 720.57 L 739.051 720.57 Q 734.886 720.57 732.814 718.591 L 732.814 718.591 L 732.814 718.591 Q 730.741 716.613 730.741 712.26 L 730.741 712.26 L 730.741 697.329 L 730.741 697.329 Z  M 771.891 713.926 L 771.891 713.926 L 771.891 713.926 Q 771.891 717.113 769.517 718.841 L 769.517 718.841 L 769.517 718.841 Q 767.143 720.57 762.853 720.57 L 762.853 720.57 L 762.853 720.57 Q 758.314 720.57 755.773 719.133 L 755.773 719.133 L 755.773 715.926 L 755.773 715.926 Q 757.418 716.759 759.303 717.238 L 759.303 717.238 L 759.303 717.238 Q 761.187 717.717 762.937 717.717 L 762.937 717.717 L 762.937 717.717 Q 765.644 717.717 767.102 716.852 L 767.102 716.852 L 767.102 716.852 Q 768.559 715.988 768.559 714.218 L 768.559 714.218 L 768.559 714.218 Q 768.559 712.885 767.404 711.938 L 767.404 711.938 L 767.404 711.938 Q 766.248 710.99 762.895 709.699 L 762.895 709.699 L 762.895 709.699 Q 759.709 708.512 758.366 707.627 L 758.366 707.627 L 758.366 707.627 Q 757.022 706.742 756.366 705.617 L 756.366 705.617 L 756.366 705.617 Q 755.71 704.493 755.71 702.931 L 755.71 702.931 L 755.71 702.931 Q 755.71 700.14 757.98 698.526 L 757.98 698.526 L 757.98 698.526 Q 760.25 696.913 764.207 696.913 L 764.207 696.913 L 764.207 696.913 Q 767.893 696.913 771.412 698.412 L 771.412 698.412 L 770.184 701.223 L 770.184 701.223 Q 766.748 699.807 763.957 699.807 L 763.957 699.807 L 763.957 699.807 Q 761.5 699.807 760.25 700.578 L 760.25 700.578 L 760.25 700.578 Q 759.001 701.348 759.001 702.702 L 759.001 702.702 L 759.001 702.702 Q 759.001 703.618 759.469 704.264 L 759.469 704.264 L 759.469 704.264 Q 759.938 704.909 760.979 705.492 L 760.979 705.492 L 760.979 705.492 Q 762.02 706.075 764.978 707.179 L 764.978 707.179 L 764.978 707.179 Q 769.038 708.658 770.465 710.157 L 770.465 710.157 L 770.465 710.157 Q 771.891 711.657 771.891 713.926 Z  M 780.971 697.329 L 780.971 720.153 L 777.514 720.153 L 777.514 697.329 L 780.971 697.329 L 780.971 697.329 Z  M 777.223 691.144 L 777.223 691.144 L 777.223 691.144 Q 777.223 689.957 777.806 689.405 L 777.806 689.405 L 777.806 689.405 Q 778.389 688.853 779.263 688.853 L 779.263 688.853 L 779.263 688.853 Q 780.096 688.853 780.7 689.416 L 780.7 689.416 L 780.7 689.416 Q 781.304 689.978 781.304 691.144 L 781.304 691.144 L 781.304 691.144 Q 781.304 692.31 780.7 692.883 L 780.7 692.883 L 780.7 692.883 Q 780.096 693.456 779.263 693.456 L 779.263 693.456 L 779.263 693.456 Q 778.389 693.456 777.806 692.883 L 777.806 692.883 L 777.806 692.883 Q 777.223 692.31 777.223 691.144 Z  M 797.423 720.57 L 797.423 720.57 L 797.423 720.57 Q 792.466 720.57 789.749 717.519 L 789.749 717.519 L 789.749 717.519 Q 787.031 714.468 787.031 708.887 L 787.031 708.887 L 787.031 708.887 Q 787.031 703.16 789.79 700.036 L 789.79 700.036 L 789.79 700.036 Q 792.55 696.913 797.652 696.913 L 797.652 696.913 L 797.652 696.913 Q 799.297 696.913 800.942 697.267 L 800.942 697.267 L 800.942 697.267 Q 802.587 697.621 803.524 698.1 L 803.524 698.1 L 802.462 701.036 L 802.462 701.036 Q 801.317 700.578 799.963 700.276 L 799.963 700.276 L 799.963 700.276 Q 798.61 699.974 797.568 699.974 L 797.568 699.974 L 797.568 699.974 Q 790.613 699.974 790.613 708.845 L 790.613 708.845 L 790.613 708.845 Q 790.613 713.052 792.31 715.301 L 792.31 715.301 L 792.31 715.301 Q 794.007 717.55 797.339 717.55 L 797.339 717.55 L 797.339 717.55 Q 800.192 717.55 803.191 716.321 L 803.191 716.321 L 803.191 719.383 L 803.191 719.383 Q 800.9 720.57 797.423 720.57 Z " fill="rgb(0,195,255)"/></g><path d="M 712.5 855 L 888.5 855 C 912.508 855 932 874.492 932 898.5 L 932 898.5 C 932 922.508 912.508 942 888.5 942 L 712.5 942 C 688.492 942 669 922.508 669 898.5 L 669 898.5 C 669 874.492 688.492 855 712.5 855 Z" style="stroke:none;fill:#FF9900;stroke-miterlimit:10;"/><path d=" M 867.684 899.75 L 877.41 913.754 L 868.484 913.754 L 862.918 904.828 L 857.41 913.754 L 848.68 913.754 L 858.152 899.145 L 849.246 885.199 L 857.801 885.199 L 862.957 894.027 L 867.918 885.199 L 876.727 885.199 L 867.684 899.75 L 867.684 899.75 Z  M 786.316 894.281 L 786.316 894.281 L 786.316 894.281 Q 786.316 899.066 783.494 901.674 L 783.494 901.674 L 783.494 901.674 Q 780.672 904.281 775.477 904.281 L 775.477 904.281 L 773.309 904.281 L 773.309 913.754 L 765.594 913.754 L 765.594 885.199 L 775.477 885.199 L 775.477 885.199 Q 780.887 885.199 783.602 887.563 L 783.602 887.563 L 783.602 887.563 Q 786.316 889.926 786.316 894.281 Z  M 773.309 891.43 L 773.309 897.992 L 774.715 897.992 L 774.715 897.992 Q 776.453 897.992 777.479 897.016 L 777.479 897.016 L 777.479 897.016 Q 778.504 896.039 778.504 894.32 L 778.504 894.32 L 778.504 894.32 Q 778.504 891.43 775.301 891.43 L 775.301 891.43 L 773.309 891.43 L 773.309 891.43 Z  M 812.02 913.754 L 804.383 913.754 L 804.383 901.684 L 804.383 901.684 Q 804.383 899.477 803.748 898.354 L 803.748 898.354 L 803.748 898.354 Q 803.113 897.23 801.707 897.23 L 801.707 897.23 L 801.707 897.23 Q 799.773 897.23 798.914 898.773 L 798.914 898.773 L 798.914 898.773 Q 798.055 900.316 798.055 904.066 L 798.055 904.066 L 798.055 913.754 L 790.418 913.754 L 790.418 891.625 L 796.18 891.625 L 797.137 894.359 L 797.586 894.359 L 797.586 894.359 Q 798.563 892.797 800.291 892.016 L 800.291 892.016 L 800.291 892.016 Q 802.02 891.234 804.266 891.234 L 804.266 891.234 L 804.266 891.234 Q 807.938 891.234 809.979 893.363 L 809.979 893.363 L 809.979 893.363 Q 812.02 895.492 812.02 899.359 L 812.02 899.359 L 812.02 913.754 L 812.02 913.754 Z  M 830.262 891.508 L 830.262 913.754 L 822.547 913.754 L 822.547 891.508 L 815.574 891.508 L 815.574 885.199 L 837.215 885.199 L 837.215 891.508 L 830.262 891.508 L 830.262 891.508 Z  M 718.152 891.234 L 718.152 891.234 L 718.152 891.234 Q 721.766 891.234 723.885 894.262 L 723.885 894.262 L 723.885 894.262 Q 726.004 897.289 726.004 902.641 L 726.004 902.641 L 726.004 902.641 Q 726.004 908.031 723.865 911.088 L 723.865 911.088 L 723.865 911.088 Q 721.727 914.145 717.918 914.145 L 717.918 914.145 L 717.918 914.145 Q 716.688 914.145 715.73 913.881 L 715.73 913.881 L 715.73 913.881 Q 714.773 913.617 714.021 913.148 L 714.021 913.148 L 714.021 913.148 Q 713.27 912.68 712.273 911.586 L 712.273 911.586 L 711.805 911.586 L 710.594 913.754 L 704.637 913.754 L 704.637 883.363 L 712.273 883.363 L 712.273 890.238 L 712.273 890.238 Q 712.273 891.469 712 894.477 L 712 894.477 L 712.273 894.477 L 712.273 894.477 Q 713.387 892.758 714.842 891.996 L 714.842 891.996 L 714.842 891.996 Q 716.297 891.234 718.152 891.234 Z  M 715.359 897.23 L 715.359 897.23 L 715.359 897.23 Q 713.758 897.23 713.016 898.344 L 713.016 898.344 L 713.016 898.344 Q 712.273 899.457 712.273 901.84 L 712.273 901.84 L 712.273 902.914 L 712.273 902.914 Q 712.273 905.629 713.016 906.811 L 713.016 906.811 L 713.016 906.811 Q 713.758 907.992 715.438 907.992 L 715.438 907.992 L 715.438 907.992 Q 716.785 907.992 717.508 906.615 L 717.508 906.615 L 717.508 906.615 Q 718.23 905.238 718.23 902.563 L 718.23 902.563 L 718.23 902.563 Q 718.23 897.23 715.359 897.23 Z  M 736.395 913.441 L 727.684 891.625 L 735.73 891.625 L 739.48 904.32 L 739.48 904.32 Q 739.754 905.316 739.852 906.723 L 739.852 906.723 L 740.008 906.723 L 740.008 906.723 Q 740.164 905.375 740.477 904.359 L 740.477 904.359 L 744.324 891.625 L 752.117 891.625 L 743.367 915.16 L 743.367 915.16 Q 741.688 919.652 739.236 921.508 L 739.236 921.508 L 739.236 921.508 Q 736.785 923.363 732.84 923.363 L 732.84 923.363 L 732.84 923.363 Q 731.316 923.363 729.715 923.031 L 729.715 923.031 L 729.715 917.035 L 729.715 917.035 Q 730.75 917.27 732.078 917.27 L 732.078 917.27 L 732.078 917.27 Q 733.094 917.27 733.855 916.879 L 733.855 916.879 L 733.855 916.879 Q 734.617 916.488 735.184 915.775 L 735.184 915.775 L 735.184 915.775 Q 735.75 915.063 736.395 913.441 L 736.395 913.441 L 736.395 913.441 Z " fill="rgb(255,255,255)"/></g></svg>