<?xml version="1.0" encoding="UTF-8" standalone="no"?><!-- Generator: Gravit.io --><svg xmlns="http://www.w3.org/2000/svg" xmlns:xlink="http://www.w3.org/1999/xlink" style="isolation:isolate" viewBox="1508 382.039 57.779 60.961" width="57.779pt" height="60.961pt"><linearGradient id="_lgradient_0" x1="0" y1="0.5" x2="1" y2="0.5" gradientTransform="matrix(57.779,0,0,60.961,1508,382.039)" gradientUnits="userSpaceOnUse"><stop offset="0%" stop-opacity="1" style="stop-color:rgb(255,153,0)"/><stop offset="98.26086956521739%" stop-opacity="1" style="stop-color:rgb(255,0,255)"/></linearGradient><path d=" M 1523.316 397.175 L 1508.963 404.642 L 1523.316 411.553 L 1531.025 429.096 L 1538.902 411.553 L 1552.82 404.642 L 1539.065 397.175 L 1531.025 382.039 L 1523.316 397.175 L 1523.316 397.175 Z  M 1548.344 424.136 L 1539.861 428.549 L 1548.344 432.633 L 1552.899 443 L 1557.554 432.633 L 1565.779 428.549 L 1557.65 424.136 L 1552.899 415.192 L 1548.344 424.136 L 1548.344 424.136 Z  M 1513.013 427.641 L 1508 430.249 L 1513.013 432.662 L 1515.705 438.789 L 1518.456 432.662 L 1523.316 430.249 L 1518.513 427.641 L 1515.705 422.355 L 1513.013 427.641 Z " fill-rule="evenodd" fill="url(#_lgradient_0)"/></svg>