<?xml version="1.0" encoding="UTF-8" standalone="no"?><!-- Generator: Gravit.io --><svg xmlns="http://www.w3.org/2000/svg" xmlns:xlink="http://www.w3.org/1999/xlink" style="isolation:isolate" viewBox="828.18 17.874 57.779 60.961" width="57.779pt" height="60.961pt"><g><radialGradient id="_rgradient_0" fx="0.5" fy="0.5" cx="0.5" cy="0.5" r="0.5" gradientTransform="matrix(43.857,0,0,47.056,829.143,17.874)" gradientUnits="userSpaceOnUse"><stop offset="0%" stop-opacity="1" style="stop-color:rgb(0,255,140)"/><stop offset="98.26086956521739%" stop-opacity="1" style="stop-color:rgb(5,91,91)"/></radialGradient><path d=" M 843.496 33.009 L 829.143 40.476 L 843.496 47.387 L 851.204 64.93 L 859.082 47.387 L 873 40.476 L 859.245 33.009 L 851.204 17.874 L 843.496 33.009 Z " fill="url(#_rgradient_0)"/><radialGradient id="_rgradient_1" fx="0.5" fy="0.5" cx="0.5" cy="0.5" r="0.5" gradientTransform="matrix(25.918,0,0,27.808,860.041,51.026)" gradientUnits="userSpaceOnUse"><stop offset="0%" stop-opacity="1" style="stop-color:rgb(0,255,140)"/><stop offset="98.26086956521739%" stop-opacity="1" style="stop-color:rgb(5,91,91)"/></radialGradient><path d=" M 868.523 59.97 L 860.041 64.383 L 868.523 68.467 L 873.079 78.834 L 877.734 68.467 L 885.959 64.383 L 877.83 59.97 L 873.079 51.026 L 868.523 59.97 Z " fill="url(#_rgradient_1)"/><radialGradient id="_rgradient_2" fx="0.5" fy="0.5" cx="0.5" cy="0.5" r="0.5" gradientTransform="matrix(15.316,0,0,16.434,828.18,58.189)" gradientUnits="userSpaceOnUse"><stop offset="0%" stop-opacity="1" style="stop-color:rgb(0,255,140)"/><stop offset="98.26086956521739%" stop-opacity="1" style="stop-color:rgb(5,91,91)"/></radialGradient><path d=" M 833.192 63.475 L 828.18 66.083 L 833.192 68.497 L 835.884 74.623 L 838.636 68.497 L 843.496 66.083 L 838.692 63.475 L 835.884 58.189 L 833.192 63.475 Z " fill="url(#_rgradient_2)"/></g></svg>