<?xml version="1.0" encoding="UTF-8" standalone="no"?><!-- Generator: Gravit.io --><svg xmlns="http://www.w3.org/2000/svg" xmlns:xlink="http://www.w3.org/1999/xlink" style="isolation:isolate" viewBox="1402.054 451.358 51.892 39.285" width="51.892pt" height="39.285pt"><g><path d=" M 1420.305 477.221 L 1411.67 468.585 C 1409.349 466.265 1405.722 466.123 1403.576 468.27 L 1403.576 468.27 C 1401.429 470.416 1401.571 474.043 1403.892 476.364 L 1415.371 487.843 C 1415.611 488.268 1415.912 488.668 1416.274 489.03 L 1416.274 489.03 C 1417.745 490.501 1419.845 490.964 1421.713 490.425 C 1422.688 490.234 1423.599 489.767 1424.336 489.03 L 1424.336 489.03 C 1424.684 488.682 1424.971 488.296 1425.199 487.882 L 1452.336 460.746 C 1454.482 458.599 1454.482 455.114 1452.336 452.967 L 1452.336 452.967 C 1450.19 450.821 1446.704 450.821 1444.558 452.967 L 1420.305 477.221 Z " fill-rule="evenodd" fill="rgb(49,160,106)"/></g></svg>