<?xml version="1.0" encoding="UTF-8" standalone="no"?><!-- Generator: Gravit.io --><svg xmlns="http://www.w3.org/2000/svg" xmlns:xlink="http://www.w3.org/1999/xlink" style="isolation:isolate" viewBox="21.635 172 25 34.673" width="25pt" height="34.673pt"><linearGradient id="_lgradient_1" x1="-0.34000000000000075" y1="-0.2090942028985557" x2="0.9549999999999994" y2="0.9553442028985747" gradientTransform="matrix(25,0,0,34.673,21.635,172)" gradientUnits="userSpaceOnUse"><stop offset="0%" stop-opacity="1" style="stop-color:rgb(0,150,136)"/><stop offset="100%" stop-opacity="1" style="stop-color:rgb(74,134,232)"/></linearGradient><path d=" M 43.431 196.121 L 43.431 189.839 L 46.446 189.839 L 46.446 189.839 C 46.446 188.175 45.095 186.824 43.431 186.824 L 43.431 186.824 L 43.431 180.524 C 45.022 180.363 46.258 179.212 46.258 177.818 L 46.258 177.818 C 46.258 177.658 46.105 177.528 45.916 177.528 L 43.431 177.528 L 43.431 175.015 C 43.431 173.351 42.08 172 40.416 172 L 40.416 172 L 40.416 172 L 40.416 177.528 L 27.853 177.528 L 27.853 172 L 27.853 172 L 27.853 172 C 26.189 172 24.838 173.351 24.838 175.015 L 24.838 177.528 L 24.649 177.528 C 22.986 177.528 21.635 178.741 21.635 180.236 L 21.635 180.236 C 21.635 180.405 21.788 180.543 21.977 180.543 L 24.838 180.543 L 24.838 186.824 L 24.838 186.824 L 21.823 186.824 L 21.823 186.824 C 21.823 188.305 23.125 189.539 24.838 189.792 L 24.838 196.172 C 23.23 196.434 22.012 197.662 22.012 199.136 L 22.012 199.136 L 24.838 199.136 L 24.838 206.673 L 24.838 206.673 C 26.502 206.673 27.853 205.322 27.853 203.658 L 27.853 199.136 L 40.416 199.136 L 40.416 203.789 C 40.416 205.381 41.709 206.673 43.3 206.673 L 43.431 206.673 L 43.431 199.136 L 43.826 199.136 C 45.376 199.136 46.635 197.877 46.635 196.327 L 46.635 196.121 L 43.431 196.121 Z  M 40.416 196.121 L 40.416 189.839 L 27.853 189.839 L 27.853 196.121 L 40.416 196.121 Z  M 27.853 186.824 L 27.853 180.543 L 40.416 180.543 L 40.416 186.824 L 27.853 186.824 L 27.853 186.824 Z " fill-rule="evenodd" fill="url(#_lgradient_1)"/></svg>