<?xml version="1.0" encoding="UTF-8" standalone="no"?><!-- Generator: Gravit.io --><svg xmlns="http://www.w3.org/2000/svg" xmlns:xlink="http://www.w3.org/1999/xlink" style="isolation:isolate" viewBox="1079.5 146.197 16 16" width="16pt" height="16pt"><path d=" M 1087.5 151.68 L 1084.038 148.218 C 1083.344 147.523 1082.216 147.523 1081.521 148.218 L 1081.521 148.218 C 1080.826 148.913 1080.826 150.041 1081.521 150.736 L 1084.983 154.197 L 1081.521 157.659 C 1080.826 158.353 1080.826 159.481 1081.521 160.176 L 1081.521 160.176 C 1082.216 160.871 1083.344 160.871 1084.038 160.176 L 1087.5 156.715 L 1090.962 160.176 C 1091.656 160.871 1092.784 160.871 1093.479 160.176 L 1093.479 160.176 C 1094.174 159.481 1094.174 158.353 1093.479 157.659 L 1090.017 154.197 L 1093.479 150.736 C 1094.174 150.041 1094.174 148.913 1093.479 148.218 L 1093.479 148.218 C 1092.784 147.523 1091.656 147.523 1090.962 148.218 L 1087.5 151.68 Z " fill-rule="evenodd" fill="none" vector-effect="non-scaling-stroke" stroke-width="1" stroke="rgb(255,0,119)" stroke-linejoin="miter" stroke-linecap="square" stroke-miterlimit="3"/></svg>