<?xml version="1.0" encoding="UTF-8" standalone="no"?><!-- Generator: Gravit.io --><svg xmlns="http://www.w3.org/2000/svg" xmlns:xlink="http://www.w3.org/1999/xlink" style="isolation:isolate" viewBox="1405.859 350.959 39.282 39.282" width="39.282pt" height="39.282pt"><g><path d="M 1407.469 352.569 L 1407.469 352.569 C 1409.615 350.422 1413.101 350.422 1415.247 352.569 L 1443.531 380.853 C 1445.678 382.999 1445.678 386.485 1443.531 388.631 L 1443.531 388.631 C 1441.385 390.778 1437.899 390.778 1435.753 388.631 L 1407.469 360.347 C 1405.322 358.201 1405.322 354.715 1407.469 352.569 Z" style="stroke:none;fill:#D70064;stroke-miterlimit:10;"/><path d="M 1443.531 352.569 L 1443.531 352.569 C 1441.385 350.422 1437.899 350.422 1435.753 352.569 L 1407.469 380.853 C 1405.322 382.999 1405.322 386.485 1407.469 388.631 L 1407.469 388.631 C 1409.615 390.778 1413.101 390.778 1415.247 388.631 L 1443.531 360.347 C 1445.678 358.201 1445.678 354.715 1443.531 352.569 Z" style="stroke:none;fill:#D70064;stroke-miterlimit:10;"/></g></svg>