<?xml version="1.0" encoding="UTF-8" standalone="no"?><!-- Generator: Gravit.io --><svg xmlns="http://www.w3.org/2000/svg" xmlns:xlink="http://www.w3.org/1999/xlink" style="isolation:isolate" viewBox="732.526 30.948 66.899 38.899" width="66.899pt" height="38.899pt"><g><path d="M 762.279 68.279 L 734.094 40.094 C 732.003 38.003 732.003 34.608 734.094 32.517 L 734.094 32.517 C 736.186 30.425 739.581 30.425 741.672 32.517 L 769.857 60.701 C 771.948 62.792 771.948 66.188 769.857 68.279 L 769.857 68.279 C 767.765 70.37 764.37 70.37 762.279 68.279 Z" style="stroke:none;fill:#EBEBEB;stroke-miterlimit:10;"/><path d="M 769.672 68.279 L 797.857 40.094 C 799.948 38.003 799.948 34.608 797.857 32.517 L 797.857 32.517 C 795.765 30.425 792.37 30.425 790.279 32.517 L 762.094 60.701 C 760.003 62.792 760.003 66.188 762.094 68.279 L 762.094 68.279 C 764.186 70.37 767.581 70.37 769.672 68.279 Z" style="stroke:none;fill:#EBEBEB;stroke-miterlimit:10;"/></g></svg>