<?xml version="1.0" encoding="UTF-8" standalone="no"?><!-- Generator: Gravit.io --><svg xmlns="http://www.w3.org/2000/svg" xmlns:xlink="http://www.w3.org/1999/xlink" style="isolation:isolate" viewBox="927 55.865 48 33.793" width="48pt" height="33.793pt"><path d=" M 940.594 76.782 L 971.073 76.782 C 973.24 76.782 975 75.022 975 72.854 L 975 72.854 C 975 70.687 973.24 68.927 971.073 68.927 L 940.408 68.927 L 946.425 62.911 C 948.215 61.121 948.424 58.424 946.891 56.891 L 946.891 56.891 C 945.358 55.358 942.661 55.567 940.871 57.357 L 928.908 69.32 C 928.634 69.472 928.379 69.662 928.149 69.891 L 928.149 69.891 C 927.703 70.338 927.404 70.883 927.254 71.478 C 927.088 71.905 927 72.369 927 72.854 L 927 72.854 C 927 74.304 927.787 75.57 928.956 76.251 L 940.871 88.166 C 942.661 89.956 945.358 90.165 946.891 88.632 L 946.891 88.632 C 948.424 87.1 948.215 84.402 946.425 82.612 L 940.594 76.782 Z " fill-rule="evenodd" fill="rgb(255,0,255)"/></svg>