<?xml version="1.0" encoding="UTF-8" standalone="no"?><!-- Generator: Gravit.io --><svg xmlns="http://www.w3.org/2000/svg" xmlns:xlink="http://www.w3.org/1999/xlink" style="isolation:isolate" viewBox="21.735 855 80 80" width="80pt" height="80pt"><path d=" M 55.485 855 L 67.985 855 C 70.064 855 71.735 856.672 71.735 858.75 L 71.735 885 L 85.439 885 C 88.22 885 89.61 888.359 87.642 890.328 L 63.876 914.109 C 62.704 915.281 60.782 915.281 59.61 914.109 L 35.814 890.328 C 33.845 888.359 35.235 885 38.017 885 L 51.735 885 L 51.735 858.75 C 51.735 856.672 53.407 855 55.485 855 Z  M 101.735 913.75 L 101.735 931.25 C 101.735 933.328 100.064 935 97.985 935 L 25.485 935 C 23.407 935 21.735 933.328 21.735 931.25 L 21.735 913.75 C 21.735 911.672 23.407 910 25.485 910 L 48.407 910 L 56.064 917.656 C 59.204 920.797 64.267 920.797 67.407 917.656 L 75.064 910 L 97.985 910 C 100.064 910 101.735 911.672 101.735 913.75 Z  M 82.36 927.5 C 82.36 925.781 80.954 924.375 79.235 924.375 C 77.517 924.375 76.11 925.781 76.11 927.5 C 76.11 929.219 77.517 930.625 79.235 930.625 C 80.954 930.625 82.36 929.219 82.36 927.5 Z  M 92.36 927.5 C 92.36 925.781 90.954 924.375 89.235 924.375 C 87.517 924.375 86.11 925.781 86.11 927.5 C 86.11 929.219 87.517 930.625 89.235 930.625 C 90.954 930.625 92.36 929.219 92.36 927.5 Z " fill="rgb(255,0,255)"/></svg>