<?xml version="1.0" encoding="UTF-8" standalone="no"?><!-- Generator: Gravit.io --><svg xmlns="http://www.w3.org/2000/svg" xmlns:xlink="http://www.w3.org/1999/xlink" style="isolation:isolate" viewBox="22.667 597.667 84.667 84.667" width="84.667pt" height="84.667pt"><g><circle vector-effect="non-scaling-stroke" cx="65" cy="640" r="39.999999999999986" fill="none" stroke-width="4.667" stroke="rgb(255,0,255)" stroke-linejoin="round" stroke-linecap="round" stroke-miterlimit="4"/><mask id="_mask_hl4NMybjJHnl1RTo4oL8ufSEHIvtCz8d" x="-200%" y="-200%" width="400%" height="400%"><rect x="-200%" y="-200%" width="400%" height="400%" style="fill:white;"/><line x1="74.24" y1="624" x2="97.2" y2="663.76" fill="black" stroke="none"/></mask><line x1="74.24" y1="624" x2="97.2" y2="663.76" mask="url(#_mask_hl4NMybjJHnl1RTo4oL8ufSEHIvtCz8d)" vector-effect="non-scaling-stroke" stroke-width="4" stroke="rgb(255,0,255)" stroke-linejoin="round" stroke-linecap="square" stroke-miterlimit="4"/><mask id="_mask_iUXgbrLEPcZ4xfa9d9VirqAIlT4qqYfQ" x="-200%" y="-200%" width="400%" height="400%"><rect x="-200%" y="-200%" width="400%" height="400%" style="fill:white;"/><line x1="55.76" y1="624" x2="101.68" y2="624" fill="black" stroke="none"/></mask><line x1="55.76" y1="624" x2="101.68" y2="624" mask="url(#_mask_iUXgbrLEPcZ4xfa9d9VirqAIlT4qqYfQ)" vector-effect="non-scaling-stroke" stroke-width="5" stroke="rgb(255,0,255)" stroke-linejoin="round" stroke-linecap="butt" stroke-miterlimit="4"/><mask id="_mask_z3ibFt6nN0cJpn22W00Fl92jmK7zRQEZ" x="-200%" y="-200%" width="400%" height="400%"><rect x="-200%" y="-200%" width="400%" height="400%" style="fill:white;"/><line x1="46.52" y1="640" x2="69.48" y2="600.24" fill="black" stroke="none"/></mask><line x1="46.52" y1="640" x2="69.48" y2="600.24" mask="url(#_mask_z3ibFt6nN0cJpn22W00Fl92jmK7zRQEZ)" vector-effect="non-scaling-stroke" stroke-width="6" stroke="rgb(255,0,255)" stroke-linejoin="round" stroke-linecap="butt" stroke-miterlimit="4"/><mask id="_mask_wwQasM9G4u8AG8sQLlGbtIx0DZDWmRnR" x="-200%" y="-200%" width="400%" height="400%"><rect x="-200%" y="-200%" width="400%" height="400%" style="fill:white;"/><line x1="55.76" y1="656" x2="32.8" y2="616.24" fill="black" stroke="none"/></mask><line x1="55.76" y1="656" x2="32.8" y2="616.24" mask="url(#_mask_wwQasM9G4u8AG8sQLlGbtIx0DZDWmRnR)" vector-effect="non-scaling-stroke" stroke-width="6" stroke="rgb(255,0,255)" stroke-linejoin="round" stroke-linecap="butt" stroke-miterlimit="4"/><mask id="_mask_4bBAogu6qVlIYLGHf6AmsH8no3VPUtHO" x="-200%" y="-200%" width="400%" height="400%"><rect x="-200%" y="-200%" width="400%" height="400%" style="fill:white;"/><line x1="74.24" y1="656" x2="28.32" y2="656" fill="black" stroke="none"/></mask><line x1="74.24" y1="656" x2="28.32" y2="656" mask="url(#_mask_4bBAogu6qVlIYLGHf6AmsH8no3VPUtHO)" vector-effect="non-scaling-stroke" stroke-width="6" stroke="rgb(255,0,255)" stroke-linejoin="round" stroke-linecap="butt" stroke-miterlimit="4"/><mask id="_mask_aFZkhP0U5rLlCqp4SjvlsUGin9CDn8gT" x="-200%" y="-200%" width="400%" height="400%"><rect x="-200%" y="-200%" width="400%" height="400%" style="fill:white;"/><line x1="83.48" y1="640" x2="60.52" y2="679.76" fill="black" stroke="none"/></mask><line x1="83.48" y1="640" x2="60.52" y2="679.76" mask="url(#_mask_aFZkhP0U5rLlCqp4SjvlsUGin9CDn8gT)" vector-effect="non-scaling-stroke" stroke-width="6" stroke="rgb(255,0,255)" stroke-linejoin="round" stroke-linecap="butt" stroke-miterlimit="4"/></g></svg>