<?xml version="1.0" encoding="UTF-8" standalone="no"?><!-- Generator: Gravit.io --><svg xmlns="http://www.w3.org/2000/svg" xmlns:xlink="http://www.w3.org/1999/xlink" style="isolation:isolate" viewBox="1349.75 202.464 30 48.571" width="30pt" height="48.571pt"><path d=" M 1350.769 202.745 L 1356.042 202.745 C 1356.604 202.745 1357.061 203.201 1357.061 203.764 L 1357.061 250.016 C 1357.061 250.579 1356.604 251.036 1356.042 251.036 L 1350.769 251.036 C 1350.207 251.036 1349.75 250.579 1349.75 250.016 L 1349.75 203.764 C 1349.75 203.201 1350.207 202.745 1350.769 202.745 Z  M 1373.443 202.464 L 1378.746 202.464 C 1379.3 202.464 1379.75 202.914 1379.75 203.468 L 1379.75 249.751 C 1379.75 250.305 1379.3 250.755 1378.746 250.755 L 1373.443 250.755 C 1372.889 250.755 1372.439 250.305 1372.439 249.751 L 1372.439 203.468 C 1372.439 202.914 1372.889 202.464 1373.443 202.464 Z " fill-rule="evenodd" fill="rgb(255,0,255)"/></svg>